<?xml version="1.0" encoding="UTF-8" standalone="no"?>
<!DOCTYPE svg PUBLIC "-//W3C//DTD SVG 1.1//EN" "http://www.w3.org/Graphics/SVG/1.1/DTD/svg11.dtd">
<svg width="100%" height="100%" viewBox="0 0 128 128" version="1.1" xmlns="http://www.w3.org/2000/svg" xmlns:xlink="http://www.w3.org/1999/xlink" xml:space="preserve" xmlns:serif="http://www.serif.com/" style="fill-rule:evenodd;clip-rule:evenodd;stroke-linecap:round;stroke-linejoin:round;stroke-miterlimit:1.5;">
    <g id="Mira" transform="matrix(0.332468,0,0,0.332468,-13.298701,-12.966234)">
        <g transform="matrix(1.081201,0,0,1.081201,23.509907,-21.359004)">
            <path d="M371.337,103.331L371.337,364.406C371.337,390.625 350.051,411.911 323.832,411.911L62.757,411.911C36.538,411.911 15.252,390.625 15.252,364.406L15.252,103.331C15.252,77.112 36.538,55.826 62.757,55.826L323.832,55.826C350.051,55.826 371.337,77.112 371.337,103.331Z" style="fill:rgb(20,69,102);stroke:rgb(20,69,102);stroke-width:1.23px;"/>
        </g>
        <g transform="matrix(1.224499,0,0,1.224499,-72.08804,-45.243289)">
            <path d="M248.745,147.473C292.088,147.473 327.277,182.662 327.277,226.005C327.277,269.348 292.088,304.537 248.745,304.537C205.402,304.537 170.213,269.348 170.213,226.005C170.213,182.662 205.402,147.473 248.745,147.473ZM248.745,204.823C237.054,204.823 227.562,214.314 227.562,226.005C227.562,237.696 237.054,247.188 248.745,247.188C260.436,247.188 269.928,237.696 269.928,226.005C269.928,214.314 260.436,204.823 248.745,204.823Z" style="fill:white;stroke:white;stroke-width:1.09px;"/>
        </g>
        <g transform="matrix(1,0,0,1,-0.237482,7.289752)">
            <circle cx="232.737" cy="224.21" r="126.217" style="fill:none;stroke:white;stroke-width:6.67px;"/>
        </g>
        <g transform="matrix(1,0,0,1,13.780972,13.30071)">
            <path d="M154.117,218.199L74.319,218.199" style="fill:none;stroke:white;stroke-width:33.33px;"/>
            <g transform="matrix(1.198498,0,0,1,-34.296628,0)">
                <path d="M74.319,218.199L172.781,218.199" style="fill:none;stroke:rgb(20,69,102);stroke-width:15.7px;"/>
            </g>
        </g>
        <g transform="matrix(1,0,0,1,0,-6.127738)">
            <g transform="matrix(0,-1,1,0,14.30071,456.346766)">
                <path d="M154.117,218.199L74.319,218.199" style="fill:none;stroke:white;stroke-width:33.33px;"/>
            </g>
            <g transform="matrix(0,-1.198498,1,0,14.30071,490.643394)">
                <path d="M74.319,218.199L172.781,218.199" style="fill:none;stroke:rgb(20,69,102);stroke-width:15.7px;"/>
            </g>
        </g>
        <g transform="matrix(1,0,0,1,-0,-216.010139)">
            <g transform="matrix(0,-1,1,0,14.30071,456.346766)">
                <path d="M154.117,218.199L74.319,218.199" style="fill:none;stroke:white;stroke-width:33.33px;"/>
            </g>
            <g transform="matrix(0,-1.198498,1,0,14.30071,490.643394)">
                <path d="M74.319,218.199L172.781,218.199" style="fill:none;stroke:rgb(20,69,102);stroke-width:15.7px;"/>
            </g>
        </g>
        <g transform="matrix(1,0,0,1,223.663373,13.30071)">
            <path d="M154.117,218.199L74.319,218.199" style="fill:none;stroke:white;stroke-width:33.33px;"/>
            <g transform="matrix(1.198498,0,0,1,-34.296628,0)">
                <path d="M74.319,218.199L172.781,218.199" style="fill:none;stroke:rgb(20,69,102);stroke-width:15.7px;"/>
            </g>
        </g>
    </g>
    <g transform="matrix(0.34982,0,0,0.315541,-20.177839,-7.580488)">
        <rect x="250.78" y="39" width="145.664" height="176.646" style="fill:rgb(20,69,102);"/>
    </g>
    <g id="Fiore" transform="matrix(0.332468,0,0,0.332468,-14.32767,-8.221723)">
        <g transform="matrix(0.988926,0.011074,0.011074,0.988926,1.705308,-1.746174)">
            <path d="M253.329,199.435L357.291,95.473" style="fill:none;stroke:white;stroke-width:6.67px;stroke-linecap:butt;"/>
        </g>
        <g transform="matrix(1,0,0,1,-4.891153,1.223427)">
            <circle cx="360.988" cy="95.403" r="10.199" style="fill:white;stroke:white;stroke-width:9.33px;stroke-linecap:butt;"/>
        </g>
        <g transform="matrix(1,0,0,1,-96.351883,-13.255311)">
            <circle cx="360.988" cy="95.403" r="10.199" style="fill:white;stroke:white;stroke-width:6.67px;stroke-linecap:butt;"/>
        </g>
        <g transform="matrix(1,0,0,1,-82.217882,29.491865)">
            <circle cx="360.988" cy="95.403" r="10.199" style="fill:white;"/>
        </g>
        <g transform="matrix(1,0,0,1,-55.720832,-31.154304)">
            <circle cx="360.988" cy="95.403" r="10.199" style="fill:white;stroke:white;stroke-width:6.67px;stroke-linecap:butt;"/>
        </g>
        <path d="M278.77,124.895C278.77,124.895 285.976,107.053 312.8,104.498" style="fill:none;stroke:white;stroke-width:4px;stroke-linecap:butt;"/>
        <g transform="matrix(1,0,0,1,-48.575839,9.094607)">
            <circle cx="360.988" cy="95.403" r="10.199" style="fill:white;"/>
        </g>
        <path d="M281.939,170.784C281.939,170.784 284.717,113.489 262.736,79.006" style="fill:none;stroke:white;stroke-width:6.67px;stroke-linecap:butt;"/>
        <path d="M305.267,147.456C305.267,147.456 322.217,129.016 305.267,64.249" style="fill:none;stroke:white;stroke-width:6.67px;stroke-linecap:butt;"/>
        <g transform="matrix(-0,-1,-1,0,466.271653,548.857665)">
            <circle cx="360.988" cy="95.403" r="10.199" style="fill:white;stroke:white;stroke-width:6.67px;stroke-linecap:butt;"/>
        </g>
        <g transform="matrix(-0,-1,-1,0,423.524477,534.723663)">
            <circle cx="360.988" cy="95.403" r="10.199" style="fill:white;"/>
        </g>
        <g transform="matrix(-0,-1,-1,0,484.170646,508.226614)">
            <circle cx="360.988" cy="95.403" r="10.199" style="fill:white;stroke:white;stroke-width:6.67px;stroke-linecap:butt;"/>
        </g>
        <g transform="matrix(-0,-1,-1,0,453.016342,452.505782)">
            <path d="M278.77,124.895C278.77,124.895 285.976,107.053 312.8,104.498" style="fill:none;stroke:white;stroke-width:4px;stroke-linecap:butt;"/>
        </g>
        <g transform="matrix(-0,-1,-1,0,443.921735,501.081621)">
            <circle cx="360.988" cy="95.403" r="10.199" style="fill:white;"/>
        </g>
        <g transform="matrix(-0,-1,-1,0,453.016342,452.505782)">
            <path d="M281.939,170.784C281.939,170.784 284.717,113.489 262.736,79.006" style="fill:none;stroke:white;stroke-width:6.67px;stroke-linecap:butt;"/>
        </g>
        <g transform="matrix(-0,-1,-1,0,453.016342,452.505782)">
            <path d="M305.267,147.456C305.267,147.456 322.217,129.016 305.267,64.249" style="fill:none;stroke:white;stroke-width:6.67px;stroke-linecap:butt;"/>
        </g>
    </g>
</svg>
