<?xml version="1.0" encoding="UTF-8" standalone="no"?>
<!DOCTYPE svg PUBLIC "-//W3C//DTD SVG 1.1//EN" "http://www.w3.org/Graphics/SVG/1.1/DTD/svg11.dtd">
<svg width="100%" height="100%" viewBox="0 0 32 32" version="1.1" xmlns="http://www.w3.org/2000/svg" xmlns:xlink="http://www.w3.org/1999/xlink" xml:space="preserve" xmlns:serif="http://www.serif.com/" style="fill-rule:evenodd;clip-rule:evenodd;stroke-linecap:round;stroke-linejoin:round;stroke-miterlimit:1.5;">
    <g transform="matrix(1,0,0,1,-561,-84.383624)">
        <g id="Artboard-32x32" serif:id="Artboard 32x32" transform="matrix(0.737748,0,0,0.776531,159.941656,-91.112437)">
            <rect x="543.625" y="226" width="43.375" height="41.209" style="fill:none;"/>
            <clipPath id="_clip1">
                <rect x="543.625" y="226" width="43.375" height="41.209"/>
            </clipPath>
            <g clip-path="url(#_clip1)">
                <g transform="matrix(0.121811,0,0,0.115728,541.76696,219.539407)">
                    <path d="M371.337,103.331L371.337,364.406C371.337,390.625 350.051,411.911 323.832,411.911L62.757,411.911C36.538,411.911 15.252,390.625 15.252,364.406L15.252,103.331C15.252,77.112 36.538,55.826 62.757,55.826L323.832,55.826C350.051,55.826 371.337,77.112 371.337,103.331Z" style="fill:rgb(20,69,102);stroke:rgb(20,69,102);stroke-width:1.23px;"/>
                </g>
                <g transform="matrix(0.137956,0,0,0.131066,530.996618,216.982926)">
                    <path d="M248.745,147.473C292.088,147.473 327.277,182.662 327.277,226.005C327.277,269.348 292.088,304.537 248.745,304.537C205.402,304.537 170.213,269.348 170.213,226.005C170.213,182.662 205.402,147.473 248.745,147.473ZM248.745,204.823C237.054,204.823 227.562,214.314 227.562,226.005C227.562,237.696 237.054,247.188 248.745,247.188C260.436,247.188 269.928,237.696 269.928,226.005C269.928,214.314 260.436,204.823 248.745,204.823Z" style="fill:white;stroke:white;stroke-width:1.09px;"/>
                </g>
                <g transform="matrix(0.112663,0,0,0.107036,539.091511,222.605858)">
                    <circle cx="232.737" cy="224.21" r="126.217" style="fill:none;stroke:white;stroke-width:6.67px;"/>
                </g>
                <g transform="matrix(0.112663,0,0,0.107036,540.67087,223.249248)">
                    <path d="M154.117,218.199L74.319,218.199" style="fill:none;stroke:white;stroke-width:33.33px;"/>
                </g>
                <g transform="matrix(0.135026,0,0,0.107036,536.806913,223.249248)">
                    <path d="M74.319,218.199L172.781,218.199" style="fill:none;stroke:rgb(20,69,102);stroke-width:15.7px;"/>
                </g>
                <g transform="matrix(0,-0.107036,0.112663,0,540.729426,270.015285)">
                    <path d="M154.117,218.199L74.319,218.199" style="fill:none;stroke:white;stroke-width:33.33px;"/>
                </g>
                <g transform="matrix(0,-0.128283,0.112663,0,540.729426,273.686263)">
                    <path d="M74.319,218.199L172.781,218.199" style="fill:none;stroke:rgb(20,69,102);stroke-width:15.7px;"/>
                </g>
                <g transform="matrix(0,-0.107036,0.112663,0,540.729426,247.550289)">
                    <path d="M154.117,218.199L74.319,218.199" style="fill:none;stroke:white;stroke-width:33.33px;"/>
                </g>
                <g transform="matrix(0,-0.128283,0.112663,0,540.729426,251.221267)">
                    <path d="M74.319,218.199L172.781,218.199" style="fill:none;stroke:rgb(20,69,102);stroke-width:15.7px;"/>
                </g>
                <g transform="matrix(0.112663,0,0,0.107036,564.316831,223.249248)">
                    <path d="M154.117,218.199L74.319,218.199" style="fill:none;stroke:white;stroke-width:33.33px;"/>
                </g>
                <g transform="matrix(0.135026,0,0,0.107036,560.452873,223.249248)">
                    <path d="M74.319,218.199L172.781,218.199" style="fill:none;stroke:rgb(20,69,102);stroke-width:15.7px;"/>
                </g>
                <g transform="matrix(0.118543,0,0,0.101587,536.78714,223.559503)">
                    <rect x="250.78" y="39" width="145.664" height="176.646" style="fill:rgb(20,69,102);"/>
                </g>
                <g transform="matrix(0.111415,0.001185,0.001248,0.105851,538.961705,223.166158)">
                    <path d="M253.329,199.435L357.291,95.473" style="fill:none;stroke:white;stroke-width:6.67px;stroke-linecap:butt;"/>
                </g>
                <g transform="matrix(0.112663,0,0,0.107036,538.218529,223.484012)">
                    <circle cx="360.988" cy="95.403" r="10.199" style="fill:white;stroke:white;stroke-width:9.33px;stroke-linecap:butt;"/>
                </g>
                <g transform="matrix(0.112663,0,0,0.107036,527.914298,221.934264)">
                    <circle cx="360.988" cy="95.403" r="10.199" style="fill:white;stroke:white;stroke-width:6.67px;stroke-linecap:butt;"/>
                </g>
                <g transform="matrix(0.112663,0,0,0.107036,529.506675,226.509756)">
                    <circle cx="360.988" cy="95.403" r="10.199" style="fill:white;"/>
                </g>
                <g transform="matrix(0.112663,0,0,0.107036,532.49191,220.018426)">
                    <circle cx="360.988" cy="95.403" r="10.199" style="fill:white;stroke:white;stroke-width:6.67px;stroke-linecap:butt;"/>
                </g>
                <g transform="matrix(0.112663,0,0,0.107036,538.76958,223.353061)">
                    <path d="M278.77,124.895C278.77,124.895 285.976,107.053 312.8,104.498" style="fill:none;stroke:white;stroke-width:4px;stroke-linecap:butt;"/>
                </g>
                <g transform="matrix(0.112663,0,0,0.107036,533.296885,224.326513)">
                    <circle cx="360.988" cy="95.403" r="10.199" style="fill:white;"/>
                </g>
                <g transform="matrix(0.112663,0,0,0.107036,538.76958,223.353061)">
                    <path d="M281.939,170.784C281.939,170.784 284.717,113.489 262.736,79.006" style="fill:none;stroke:white;stroke-width:6.67px;stroke-linecap:butt;"/>
                </g>
                <g transform="matrix(0.112663,0,0,0.107036,538.76958,223.353061)">
                    <path d="M305.267,147.456C305.267,147.456 322.217,129.016 305.267,64.249" style="fill:none;stroke:white;stroke-width:6.67px;stroke-linecap:butt;"/>
                </g>
                <g transform="matrix(-0,-0.107036,-0.112663,0,591.301099,282.10065)">
                    <circle cx="360.988" cy="95.403" r="10.199" style="fill:white;stroke:white;stroke-width:6.67px;stroke-linecap:butt;"/>
                </g>
                <g transform="matrix(-0,-0.107036,-0.112663,0,586.485078,280.587802)">
                    <circle cx="360.988" cy="95.403" r="10.199" style="fill:white;"/>
                </g>
                <g transform="matrix(-0,-0.107036,-0.112663,0,593.317651,277.751661)">
                    <circle cx="360.988" cy="95.403" r="10.199" style="fill:white;stroke:white;stroke-width:6.67px;stroke-linecap:butt;"/>
                </g>
                <g transform="matrix(-0,-0.107036,-0.112663,0,589.807717,271.78752)">
                    <path d="M278.77,124.895C278.77,124.895 285.976,107.053 312.8,104.498" style="fill:none;stroke:white;stroke-width:4px;stroke-linecap:butt;"/>
                </g>
                <g transform="matrix(-0,-0.107036,-0.112663,0,588.783092,276.986888)">
                    <circle cx="360.988" cy="95.403" r="10.199" style="fill:white;"/>
                </g>
                <g transform="matrix(-0,-0.107036,-0.112663,0,589.807717,271.78752)">
                    <path d="M281.939,170.784C281.939,170.784 284.717,113.489 262.736,79.006" style="fill:none;stroke:white;stroke-width:6.67px;stroke-linecap:butt;"/>
                </g>
                <g transform="matrix(-0,-0.107036,-0.112663,0,589.807717,271.78752)">
                    <path d="M305.267,147.456C305.267,147.456 322.217,129.016 305.267,64.249" style="fill:none;stroke:white;stroke-width:6.67px;stroke-linecap:butt;"/>
                </g>
            </g>
        </g>
    </g>
</svg>
