<?xml version="1.0" encoding="UTF-8" standalone="no"?>
<!DOCTYPE svg PUBLIC "-//W3C//DTD SVG 1.1//EN" "http://www.w3.org/Graphics/SVG/1.1/DTD/svg11.dtd">
<svg width="100%" height="100%" viewBox="0 0 450 125" version="1.1" xmlns="http://www.w3.org/2000/svg" xmlns:xlink="http://www.w3.org/1999/xlink" xml:space="preserve" xmlns:serif="http://www.serif.com/" style="fill-rule:evenodd;clip-rule:evenodd;stroke-linecap:round;stroke-linejoin:round;stroke-miterlimit:1.5;">
    <g transform="matrix(1,0,0,1,-415,-155.010846)">
        <g id="Artboard-540x125" serif:id="Artboard 540x125" transform="matrix(0.946824,0,0,0.765578,13.930345,-94.986692)">
            <rect x="423.595" y="326.547" width="475.273" height="163.275" style="fill:none;"/>
            <clipPath id="_clip1">
                <rect x="423.595" y="326.547" width="475.273" height="163.275"/>
            </clipPath>
            <g clip-path="url(#_clip1)">
                <g transform="matrix(1.333124,0,0,0.458528,403.830018,300.94958)">
                    <path d="M371.337,103.331L371.337,364.406C371.337,390.625 365.417,411.911 358.125,411.911L28.463,411.911C21.172,411.911 15.252,390.625 15.252,364.406L15.252,103.331C15.252,77.112 21.172,55.826 28.463,55.826L358.125,55.826C365.417,55.826 371.337,77.112 371.337,103.331Z" style="fill:rgb(20,69,102);stroke:rgb(20,69,102);stroke-width:1.23px;"/>
                </g>
                <g transform="matrix(0.419392,0,0,0.5193,385.772115,290.820455)">
                    <path d="M248.745,147.473C292.088,147.473 327.277,182.662 327.277,226.005C327.277,269.348 292.088,304.537 248.745,304.537C205.402,304.537 170.213,269.348 170.213,226.005C170.213,182.662 205.402,147.473 248.745,147.473ZM248.745,204.823C237.054,204.823 227.562,214.314 227.562,226.005C227.562,237.696 237.054,247.188 248.745,247.188C260.436,247.188 269.928,237.696 269.928,226.005C269.928,214.314 260.436,204.823 248.745,204.823Z" style="fill:white;stroke:white;stroke-width:1.09px;"/>
                </g>
                <g transform="matrix(0.342501,0,0,0.424092,410.380977,313.099277)">
                    <circle cx="232.737" cy="224.21" r="126.217" style="fill:none;stroke:white;stroke-width:6.67px;"/>
                </g>
                <g transform="matrix(0.342501,0,0,0.424092,415.182307,315.648474)">
                    <path d="M154.117,218.199L74.319,218.199" style="fill:none;stroke:white;stroke-width:33.33px;"/>
                </g>
                <g transform="matrix(0.410486,0,0,0.424092,403.435689,315.648474)">
                    <path d="M74.319,218.199L172.781,218.199" style="fill:none;stroke:rgb(20,69,102);stroke-width:15.7px;"/>
                </g>
                <g transform="matrix(0,-0.424092,0.342501,0,415.360317,500.941869)">
                    <path d="M154.117,218.199L74.319,218.199" style="fill:none;stroke:white;stroke-width:33.33px;"/>
                </g>
                <g transform="matrix(0,-0.508273,0.342501,0,415.360317,515.486782)">
                    <path d="M74.319,218.199L172.781,218.199" style="fill:none;stroke:rgb(20,69,102);stroke-width:15.7px;"/>
                </g>
                <g transform="matrix(0,-0.424092,0.342501,0,415.360317,411.932503)">
                    <path d="M154.117,218.199L74.319,218.199" style="fill:none;stroke:white;stroke-width:33.33px;"/>
                </g>
                <g transform="matrix(0,-0.508273,0.342501,0,415.360317,426.477415)">
                    <path d="M74.319,218.199L172.781,218.199" style="fill:none;stroke:rgb(20,69,102);stroke-width:15.7px;"/>
                </g>
                <g transform="matrix(0.342501,0,0,0.424092,487.067165,315.648474)">
                    <path d="M154.117,218.199L74.319,218.199" style="fill:none;stroke:white;stroke-width:33.33px;"/>
                </g>
                <g transform="matrix(0.410486,0,0,0.424092,475.320548,315.648474)">
                    <path d="M74.319,218.199L172.781,218.199" style="fill:none;stroke:rgb(20,69,102);stroke-width:15.7px;"/>
                </g>
                <g transform="matrix(0.360376,0,0,0.4025,403.375581,316.877747)">
                    <rect x="250.78" y="39" width="145.664" height="176.646" style="fill:rgb(20,69,102);"/>
                </g>
                <g transform="matrix(0.338708,0.004696,0.003793,0.419395,409.986363,315.319258)">
                    <path d="M253.329,199.435L357.291,95.473" style="fill:none;stroke:white;stroke-width:6.67px;stroke-linecap:butt;"/>
                </g>
                <g transform="matrix(0.342501,0,0,0.424092,407.727071,316.578641)">
                    <circle cx="360.988" cy="95.403" r="10.199" style="fill:white;stroke:white;stroke-width:9.33px;stroke-linecap:butt;"/>
                </g>
                <g transform="matrix(0.342501,0,0,0.424092,376.401711,310.43833)">
                    <circle cx="360.988" cy="95.403" r="10.199" style="fill:white;stroke:white;stroke-width:6.67px;stroke-linecap:butt;"/>
                </g>
                <g transform="matrix(0.342501,0,0,0.424092,381.242616,328.567049)">
                    <circle cx="360.988" cy="95.403" r="10.199" style="fill:white;"/>
                </g>
                <g transform="matrix(0.342501,0,0,0.424092,390.317873,302.847517)">
                    <circle cx="360.988" cy="95.403" r="10.199" style="fill:white;stroke:white;stroke-width:6.67px;stroke-linecap:butt;"/>
                </g>
                <g transform="matrix(0.342501,0,0,0.424092,409.402294,316.059796)">
                    <path d="M278.77,124.895C278.77,124.895 285.976,107.053 312.8,104.498" style="fill:none;stroke:white;stroke-width:4px;stroke-linecap:butt;"/>
                </g>
                <g transform="matrix(0.342501,0,0,0.424092,392.765037,319.916743)">
                    <circle cx="360.988" cy="95.403" r="10.199" style="fill:white;"/>
                </g>
                <g transform="matrix(0.342501,0,0,0.424092,409.402294,316.059796)">
                    <path d="M281.939,170.784C281.939,170.784 284.717,113.489 262.736,79.006" style="fill:none;stroke:white;stroke-width:6.67px;stroke-linecap:butt;"/>
                </g>
                <g transform="matrix(0.342501,0,0,0.424092,409.402294,316.059796)">
                    <path d="M305.267,147.456C305.267,147.456 322.217,129.016 305.267,64.249" style="fill:none;stroke:white;stroke-width:6.67px;stroke-linecap:butt;"/>
                </g>
                <g transform="matrix(-0,-0.424092,-0.342501,0,569.100637,548.82573)">
                    <circle cx="360.988" cy="95.403" r="10.199" style="fill:white;stroke:white;stroke-width:6.67px;stroke-linecap:butt;"/>
                </g>
                <g transform="matrix(-0,-0.424092,-0.342501,0,554.459701,542.831619)">
                    <circle cx="360.988" cy="95.403" r="10.199" style="fill:white;"/>
                </g>
                <g transform="matrix(-0,-0.424092,-0.342501,0,575.231053,531.594442)">
                    <circle cx="360.988" cy="95.403" r="10.199" style="fill:white;stroke:white;stroke-width:6.67px;stroke-linecap:butt;"/>
                </g>
                <g transform="matrix(-0,-0.424092,-0.342501,0,564.560684,507.963704)">
                    <path d="M278.77,124.895C278.77,124.895 285.976,107.053 312.8,104.498" style="fill:none;stroke:white;stroke-width:4px;stroke-linecap:butt;"/>
                </g>
                <g transform="matrix(-0,-0.424092,-0.342501,0,561.445775,528.56431)">
                    <circle cx="360.988" cy="95.403" r="10.199" style="fill:white;"/>
                </g>
                <g transform="matrix(-0,-0.424092,-0.342501,0,564.560684,507.963704)">
                    <path d="M281.939,170.784C281.939,170.784 284.717,113.489 262.736,79.006" style="fill:none;stroke:white;stroke-width:6.67px;stroke-linecap:butt;"/>
                </g>
                <g transform="matrix(-0,-0.424092,-0.342501,0,564.560684,507.963704)">
                    <path d="M305.267,147.456C305.267,147.456 322.217,129.016 305.267,64.249" style="fill:none;stroke:white;stroke-width:6.67px;stroke-linecap:butt;"/>
                </g>
                <g transform="matrix(1.067641,0,0,1.321975,280.926929,306.038195)">
                    <g transform="matrix(52.696987,0,0,52.696987,265.157689,69.76333)">
                        <path d="M-0.009,-0L0.303,-0.7L0.463,-0.7L0.776,-0L0.606,-0L0.35,-0.618L0.414,-0.618L0.157,-0L-0.009,-0ZM0.147,-0.15L0.19,-0.273L0.55,-0.273L0.594,-0.15L0.147,-0.15Z" style="fill:white;fill-rule:nonzero;"/>
                    </g>
                    <g transform="matrix(52.696987,0,0,52.696987,305.532822,69.76333)">
                        <rect x="0.083" y="-0.7" width="0.162" height="0.7" style="fill:white;fill-rule:nonzero;"/>
                    </g>
                    <g transform="matrix(52.696987,0,0,52.696987,322.832056,69.76333)">
                    </g>
                    <g transform="matrix(52.696987,0,0,52.696987,337.750821,69.76333)">
                        <path d="M0.228,-0L0.228,-0.568L0.004,-0.568L0.004,-0.7L0.614,-0.7L0.614,-0.568L0.39,-0.568L0.39,-0L0.228,-0Z" style="fill:white;fill-rule:nonzero;"/>
                    </g>
                    <g transform="matrix(52.696987,0,0,52.696987,370.306798,69.76333)">
                        <path d="M0.083,-0L0.083,-0.7L0.382,-0.7C0.479,-0.7 0.555,-0.677 0.609,-0.632C0.663,-0.587 0.69,-0.525 0.69,-0.446C0.69,-0.394 0.678,-0.349 0.653,-0.312C0.629,-0.274 0.594,-0.245 0.548,-0.225C0.503,-0.205 0.448,-0.195 0.386,-0.195L0.173,-0.195L0.245,-0.266L0.245,-0L0.083,-0ZM0.528,-0L0.353,-0.254L0.526,-0.254L0.703,-0L0.528,-0ZM0.245,-0.248L0.173,-0.324L0.377,-0.324C0.427,-0.324 0.464,-0.335 0.489,-0.357C0.514,-0.378 0.526,-0.408 0.526,-0.446C0.526,-0.485 0.514,-0.515 0.489,-0.536C0.464,-0.557 0.427,-0.568 0.377,-0.568L0.173,-0.568L0.245,-0.645L0.245,-0.248Z" style="fill:white;fill-rule:nonzero;"/>
                    </g>
                    <g transform="matrix(52.696987,0,0,52.696987,409.057292,69.76333)">
                        <path d="M-0.009,-0L0.303,-0.7L0.463,-0.7L0.776,-0L0.606,-0L0.35,-0.618L0.414,-0.618L0.157,-0L-0.009,-0ZM0.147,-0.15L0.19,-0.273L0.55,-0.273L0.594,-0.15L0.147,-0.15Z" style="fill:white;fill-rule:nonzero;"/>
                    </g>
                    <g transform="matrix(52.696987,0,0,52.696987,448.905456,69.76333)">
                        <path d="M0.418,0.012C0.364,0.012 0.314,0.003 0.267,-0.015C0.221,-0.032 0.181,-0.057 0.147,-0.09C0.113,-0.122 0.087,-0.161 0.068,-0.205C0.049,-0.249 0.039,-0.297 0.039,-0.35C0.039,-0.403 0.049,-0.451 0.068,-0.495C0.087,-0.539 0.113,-0.578 0.147,-0.61C0.182,-0.643 0.222,-0.668 0.268,-0.685C0.314,-0.703 0.365,-0.712 0.419,-0.712C0.48,-0.712 0.535,-0.701 0.584,-0.68C0.633,-0.659 0.674,-0.629 0.707,-0.588L0.603,-0.492C0.579,-0.519 0.553,-0.54 0.523,-0.554C0.494,-0.568 0.462,-0.574 0.427,-0.574C0.394,-0.574 0.364,-0.569 0.337,-0.558C0.31,-0.547 0.286,-0.532 0.266,-0.512C0.246,-0.492 0.231,-0.468 0.22,-0.441C0.209,-0.413 0.203,-0.383 0.203,-0.35C0.203,-0.317 0.209,-0.287 0.22,-0.259C0.231,-0.232 0.246,-0.208 0.266,-0.188C0.286,-0.168 0.31,-0.153 0.337,-0.142C0.364,-0.131 0.394,-0.126 0.427,-0.126C0.462,-0.126 0.494,-0.132 0.523,-0.146C0.553,-0.16 0.579,-0.181 0.603,-0.209L0.707,-0.113C0.674,-0.072 0.633,-0.042 0.584,-0.02C0.535,0.001 0.479,0.012 0.418,0.012Z" style="fill:white;fill-rule:nonzero;"/>
                    </g>
                    <g transform="matrix(52.696987,0,0,52.696987,487.043589,69.76333)">
                        <path d="M0.083,-0L0.083,-0.7L0.612,-0.7L0.612,-0.57L0.244,-0.57L0.244,-0.13L0.625,-0.13L0.625,-0L0.083,-0ZM0.232,-0.292L0.232,-0.418L0.569,-0.418L0.569,-0.292L0.232,-0.292Z" style="fill:white;fill-rule:nonzero;"/>
                    </g>
                    <g transform="matrix(52.696987,0,0,52.696987,522.413269,69.76333)">
                        <path d="M0.083,-0L0.083,-0.7L0.382,-0.7C0.479,-0.7 0.555,-0.677 0.609,-0.632C0.663,-0.587 0.69,-0.525 0.69,-0.446C0.69,-0.394 0.678,-0.349 0.653,-0.312C0.629,-0.274 0.594,-0.245 0.548,-0.225C0.503,-0.205 0.448,-0.195 0.386,-0.195L0.173,-0.195L0.245,-0.266L0.245,-0L0.083,-0ZM0.528,-0L0.353,-0.254L0.526,-0.254L0.703,-0L0.528,-0ZM0.245,-0.248L0.173,-0.324L0.377,-0.324C0.427,-0.324 0.464,-0.335 0.489,-0.357C0.514,-0.378 0.526,-0.408 0.526,-0.446C0.526,-0.485 0.514,-0.515 0.489,-0.536C0.464,-0.557 0.427,-0.568 0.377,-0.568L0.173,-0.568L0.245,-0.645L0.245,-0.248Z" style="fill:white;fill-rule:nonzero;"/>
                    </g>
                    <g transform="matrix(52.696987,0,0,52.696987,561.163763,69.76333)">
                    </g>
                </g>
                <g transform="matrix(1.067641,0,0,1.321975,280.926929,380.712359)">
                    <g transform="matrix(10.539397,0,0,10.539397,272.944066,38.482399)">
                        <path d="M-0.005,-0L0.31,-0.7L0.438,-0.7L0.754,-0L0.618,-0L0.347,-0.631L0.399,-0.631L0.129,-0L-0.005,-0ZM0.14,-0.162L0.175,-0.264L0.553,-0.264L0.588,-0.162L0.14,-0.162Z" style="fill:white;fill-opacity:0.75;fill-rule:nonzero;"/>
                    </g>
                    <g transform="matrix(10.539397,0,0,10.539397,280.833167,38.482399)">
                        <path d="M0.082,-0L0.082,-0.534L0.201,-0.534L0.201,-0.39L0.18,-0.434C0.199,-0.468 0.226,-0.495 0.261,-0.513C0.297,-0.531 0.338,-0.54 0.385,-0.54C0.428,-0.54 0.466,-0.532 0.5,-0.515C0.533,-0.499 0.559,-0.473 0.579,-0.439C0.598,-0.404 0.608,-0.36 0.608,-0.306L0.608,-0L0.483,-0L0.483,-0.29C0.483,-0.337 0.472,-0.372 0.45,-0.396C0.427,-0.419 0.396,-0.431 0.356,-0.431C0.327,-0.431 0.301,-0.425 0.278,-0.413C0.255,-0.401 0.238,-0.383 0.226,-0.359C0.213,-0.336 0.207,-0.306 0.207,-0.27L0.207,-0L0.082,-0Z" style="fill:white;fill-opacity:0.75;fill-rule:nonzero;"/>
                    </g>
                    <g transform="matrix(10.539397,0,0,10.539397,288.057469,38.482399)">
                    </g>
                    <g transform="matrix(10.539397,0,0,10.539397,290.962345,38.482399)">
                        <path d="M-0.005,-0L0.31,-0.7L0.438,-0.7L0.754,-0L0.618,-0L0.347,-0.631L0.399,-0.631L0.129,-0L-0.005,-0ZM0.14,-0.162L0.175,-0.264L0.553,-0.264L0.588,-0.162L0.14,-0.162Z" style="fill:white;fill-opacity:0.75;fill-rule:nonzero;"/>
                    </g>
                    <g transform="matrix(10.539397,0,0,10.539397,298.851446,38.482399)">
                        <rect x="0.094" y="-0.7" width="0.13" height="0.7" style="fill:white;fill-opacity:0.75;fill-rule:nonzero;"/>
                    </g>
                    <g transform="matrix(10.539397,0,0,10.539397,302.209878,38.482399)">
                        <rect x="0.055" y="-0.33" width="0.276" height="0.105" style="fill:white;fill-opacity:0.75;fill-rule:nonzero;"/>
                    </g>
                    <g transform="matrix(10.539397,0,0,10.539397,306.265184,38.482399)">
                        <path d="M0.378,0.007C0.335,0.007 0.295,-0.003 0.259,-0.023C0.224,-0.043 0.195,-0.073 0.175,-0.114C0.154,-0.154 0.143,-0.205 0.143,-0.267C0.143,-0.329 0.153,-0.381 0.174,-0.421C0.194,-0.461 0.221,-0.491 0.257,-0.511C0.293,-0.531 0.333,-0.54 0.378,-0.54C0.431,-0.54 0.477,-0.529 0.517,-0.506C0.558,-0.484 0.59,-0.452 0.613,-0.411C0.637,-0.37 0.649,-0.322 0.649,-0.267C0.649,-0.212 0.637,-0.164 0.613,-0.123C0.59,-0.082 0.558,-0.05 0.517,-0.027C0.477,-0.005 0.431,0.007 0.378,0.007ZM0.082,0.194L0.082,-0.534L0.201,-0.534L0.201,-0.408L0.197,-0.266L0.207,-0.124L0.207,0.194L0.082,0.194ZM0.364,-0.1C0.394,-0.1 0.421,-0.107 0.444,-0.12C0.468,-0.134 0.487,-0.153 0.501,-0.178C0.515,-0.204 0.522,-0.233 0.522,-0.267C0.522,-0.301 0.515,-0.331 0.501,-0.356C0.487,-0.381 0.468,-0.4 0.444,-0.414C0.421,-0.427 0.394,-0.434 0.364,-0.434C0.334,-0.434 0.307,-0.427 0.283,-0.414C0.259,-0.4 0.24,-0.381 0.226,-0.356C0.212,-0.331 0.205,-0.301 0.205,-0.267C0.205,-0.233 0.212,-0.204 0.226,-0.178C0.24,-0.153 0.259,-0.134 0.283,-0.12C0.307,-0.107 0.334,-0.1 0.364,-0.1Z" style="fill:white;fill-opacity:0.75;fill-rule:nonzero;"/>
                    </g>
                    <g transform="matrix(10.539397,0,0,10.539397,313.495937,38.482399)">
                        <path d="M0.322,0.007C0.268,0.007 0.219,-0.005 0.176,-0.029C0.133,-0.052 0.099,-0.085 0.075,-0.126C0.05,-0.167 0.038,-0.214 0.038,-0.267C0.038,-0.321 0.05,-0.368 0.075,-0.409C0.1,-0.45 0.133,-0.482 0.176,-0.505C0.219,-0.529 0.267,-0.54 0.322,-0.54C0.377,-0.54 0.427,-0.529 0.47,-0.505C0.512,-0.482 0.546,-0.45 0.571,-0.409C0.595,-0.368 0.607,-0.321 0.607,-0.267C0.607,-0.214 0.595,-0.167 0.571,-0.126C0.546,-0.084 0.513,-0.052 0.469,-0.029C0.426,-0.005 0.377,0.007 0.322,0.007ZM0.322,-0.1C0.353,-0.1 0.38,-0.107 0.404,-0.12C0.428,-0.134 0.447,-0.153 0.46,-0.178C0.474,-0.204 0.481,-0.233 0.481,-0.267C0.481,-0.302 0.474,-0.331 0.46,-0.356C0.447,-0.381 0.428,-0.4 0.404,-0.414C0.38,-0.427 0.353,-0.434 0.323,-0.434C0.293,-0.434 0.266,-0.427 0.242,-0.414C0.218,-0.4 0.199,-0.381 0.185,-0.356C0.171,-0.331 0.164,-0.302 0.164,-0.267C0.164,-0.233 0.171,-0.204 0.185,-0.178C0.199,-0.153 0.218,-0.134 0.242,-0.12C0.265,-0.107 0.292,-0.1 0.322,-0.1Z" style="fill:white;fill-opacity:0.75;fill-rule:nonzero;"/>
                    </g>
                    <g transform="matrix(10.539397,0,0,10.539397,320.134848,38.482399)">
                        <path d="M0.2,-0L0.004,-0.534L0.122,-0.534L0.29,-0.063L0.234,-0.063L0.41,-0.534L0.515,-0.534L0.686,-0.063L0.631,-0.063L0.804,-0.534L0.915,-0.534L0.718,-0L0.598,-0L0.442,-0.417L0.479,-0.417L0.32,-0L0.2,-0Z" style="fill:white;fill-opacity:0.75;fill-rule:nonzero;"/>
                    </g>
                    <g transform="matrix(10.539397,0,0,10.539397,329.658919,38.482399)">
                        <path d="M0.333,0.007C0.274,0.007 0.222,-0.005 0.177,-0.029C0.133,-0.052 0.099,-0.085 0.074,-0.126C0.05,-0.167 0.038,-0.214 0.038,-0.267C0.038,-0.32 0.049,-0.367 0.073,-0.408C0.097,-0.45 0.13,-0.482 0.172,-0.505C0.213,-0.529 0.261,-0.54 0.314,-0.54C0.366,-0.54 0.412,-0.529 0.453,-0.506C0.494,-0.483 0.526,-0.451 0.549,-0.41C0.572,-0.369 0.584,-0.32 0.584,-0.264C0.584,-0.258 0.584,-0.253 0.584,-0.246C0.583,-0.239 0.583,-0.233 0.582,-0.227L0.137,-0.227L0.137,-0.31L0.516,-0.31L0.467,-0.284C0.467,-0.314 0.461,-0.341 0.448,-0.365C0.435,-0.388 0.417,-0.406 0.394,-0.42C0.371,-0.433 0.344,-0.44 0.314,-0.44C0.284,-0.44 0.257,-0.433 0.234,-0.42C0.21,-0.406 0.192,-0.388 0.179,-0.364C0.167,-0.34 0.16,-0.313 0.16,-0.281L0.16,-0.261C0.16,-0.229 0.167,-0.201 0.182,-0.176C0.197,-0.152 0.217,-0.133 0.244,-0.119C0.27,-0.105 0.301,-0.099 0.336,-0.099C0.366,-0.099 0.393,-0.103 0.417,-0.113C0.441,-0.123 0.462,-0.137 0.481,-0.157L0.548,-0.08C0.524,-0.052 0.494,-0.03 0.457,-0.016C0.421,-0.001 0.379,0.007 0.333,0.007Z" style="fill:white;fill-opacity:0.75;fill-rule:nonzero;"/>
                    </g>
                    <g transform="matrix(10.539397,0,0,10.539397,336.210789,38.482399)">
                        <path d="M0.082,-0L0.082,-0.534L0.201,-0.534L0.201,-0.387L0.187,-0.43C0.203,-0.466 0.228,-0.494 0.263,-0.512C0.297,-0.531 0.34,-0.54 0.391,-0.54L0.391,-0.421C0.385,-0.422 0.38,-0.423 0.376,-0.423C0.371,-0.423 0.367,-0.424 0.362,-0.424C0.315,-0.424 0.277,-0.41 0.249,-0.382C0.221,-0.355 0.207,-0.314 0.207,-0.259L0.207,-0L0.082,-0Z" style="fill:white;fill-opacity:0.75;fill-rule:nonzero;"/>
                    </g>
                    <g transform="matrix(10.539397,0,0,10.539397,340.535121,38.482399)">
                        <path d="M0.333,0.007C0.274,0.007 0.222,-0.005 0.177,-0.029C0.133,-0.052 0.099,-0.085 0.074,-0.126C0.05,-0.167 0.038,-0.214 0.038,-0.267C0.038,-0.32 0.049,-0.367 0.073,-0.408C0.097,-0.45 0.13,-0.482 0.172,-0.505C0.213,-0.529 0.261,-0.54 0.314,-0.54C0.366,-0.54 0.412,-0.529 0.453,-0.506C0.494,-0.483 0.526,-0.451 0.549,-0.41C0.572,-0.369 0.584,-0.32 0.584,-0.264C0.584,-0.258 0.584,-0.253 0.584,-0.246C0.583,-0.239 0.583,-0.233 0.582,-0.227L0.137,-0.227L0.137,-0.31L0.516,-0.31L0.467,-0.284C0.467,-0.314 0.461,-0.341 0.448,-0.365C0.435,-0.388 0.417,-0.406 0.394,-0.42C0.371,-0.433 0.344,-0.44 0.314,-0.44C0.284,-0.44 0.257,-0.433 0.234,-0.42C0.21,-0.406 0.192,-0.388 0.179,-0.364C0.167,-0.34 0.16,-0.313 0.16,-0.281L0.16,-0.261C0.16,-0.229 0.167,-0.201 0.182,-0.176C0.197,-0.152 0.217,-0.133 0.244,-0.119C0.27,-0.105 0.301,-0.099 0.336,-0.099C0.366,-0.099 0.393,-0.103 0.417,-0.113C0.441,-0.123 0.462,-0.137 0.481,-0.157L0.548,-0.08C0.524,-0.052 0.494,-0.03 0.457,-0.016C0.421,-0.001 0.379,0.007 0.333,0.007Z" style="fill:white;fill-opacity:0.75;fill-rule:nonzero;"/>
                    </g>
                    <g transform="matrix(10.539397,0,0,10.539397,347.086991,38.482399)">
                        <path d="M0.308,0.007C0.257,0.007 0.211,-0.005 0.17,-0.028C0.129,-0.05 0.097,-0.082 0.073,-0.123C0.05,-0.164 0.038,-0.212 0.038,-0.267C0.038,-0.322 0.05,-0.37 0.073,-0.411C0.097,-0.452 0.129,-0.484 0.17,-0.506C0.211,-0.529 0.257,-0.54 0.308,-0.54C0.353,-0.54 0.393,-0.531 0.428,-0.511C0.463,-0.491 0.491,-0.461 0.512,-0.421C0.533,-0.381 0.543,-0.329 0.543,-0.267C0.543,-0.205 0.533,-0.154 0.513,-0.113C0.493,-0.073 0.465,-0.043 0.43,-0.023C0.395,-0.003 0.354,0.007 0.308,0.007ZM0.323,-0.1C0.353,-0.1 0.38,-0.107 0.404,-0.12C0.428,-0.134 0.447,-0.153 0.461,-0.178C0.475,-0.204 0.482,-0.233 0.482,-0.267C0.482,-0.301 0.475,-0.331 0.461,-0.356C0.447,-0.381 0.428,-0.4 0.404,-0.414C0.38,-0.427 0.353,-0.434 0.323,-0.434C0.293,-0.434 0.266,-0.427 0.242,-0.414C0.219,-0.4 0.2,-0.381 0.186,-0.356C0.171,-0.331 0.164,-0.301 0.164,-0.267C0.164,-0.233 0.171,-0.204 0.186,-0.178C0.2,-0.153 0.219,-0.134 0.242,-0.12C0.266,-0.107 0.293,-0.1 0.323,-0.1ZM0.485,-0L0.485,-0.126L0.489,-0.268L0.48,-0.41L0.48,-0.742L0.605,-0.742L0.605,-0L0.485,-0Z" style="fill:white;fill-opacity:0.75;fill-rule:nonzero;"/>
                    </g>
                    <g transform="matrix(10.539397,0,0,10.539397,354.324558,38.482399)">
                    </g>
                    <g transform="matrix(10.539397,0,0,10.539397,357.229434,38.482399)">
                        <path d="M0.082,-0L0.082,-0.742L0.207,-0.742L0.207,-0.39L0.18,-0.434C0.199,-0.468 0.226,-0.495 0.261,-0.513C0.297,-0.531 0.338,-0.54 0.385,-0.54C0.428,-0.54 0.466,-0.532 0.5,-0.515C0.533,-0.499 0.559,-0.473 0.579,-0.439C0.598,-0.404 0.608,-0.36 0.608,-0.306L0.608,-0L0.483,-0L0.483,-0.29C0.483,-0.337 0.472,-0.372 0.45,-0.396C0.427,-0.419 0.396,-0.431 0.356,-0.431C0.327,-0.431 0.301,-0.425 0.278,-0.413C0.255,-0.401 0.238,-0.383 0.226,-0.359C0.213,-0.336 0.207,-0.306 0.207,-0.27L0.207,-0L0.082,-0Z" style="fill:white;fill-opacity:0.75;fill-rule:nonzero;"/>
                    </g>
                    <g transform="matrix(10.539397,0,0,10.539397,364.453736,38.482399)">
                        <path d="M0.308,0.007C0.263,0.007 0.223,-0.002 0.188,-0.019C0.153,-0.035 0.126,-0.061 0.107,-0.096C0.087,-0.132 0.078,-0.176 0.078,-0.229L0.078,-0.534L0.203,-0.534L0.203,-0.246C0.203,-0.198 0.214,-0.162 0.236,-0.139C0.257,-0.115 0.288,-0.103 0.328,-0.103C0.357,-0.103 0.383,-0.109 0.405,-0.121C0.427,-0.133 0.444,-0.151 0.456,-0.175C0.468,-0.199 0.474,-0.229 0.474,-0.264L0.474,-0.534L0.599,-0.534L0.599,-0L0.48,-0L0.48,-0.144L0.501,-0.1C0.483,-0.066 0.457,-0.039 0.422,-0.021C0.388,-0.003 0.35,0.007 0.308,0.007Z" style="fill:white;fill-opacity:0.75;fill-rule:nonzero;"/>
                    </g>
                    <g transform="matrix(10.539397,0,0,10.539397,371.635881,38.482399)">
                        <path d="M0.082,-0L0.082,-0.534L0.201,-0.534L0.201,-0.392L0.18,-0.434C0.198,-0.468 0.224,-0.495 0.258,-0.513C0.293,-0.531 0.332,-0.54 0.376,-0.54C0.426,-0.54 0.47,-0.528 0.507,-0.503C0.544,-0.479 0.568,-0.441 0.58,-0.391L0.531,-0.408C0.548,-0.448 0.577,-0.48 0.617,-0.504C0.657,-0.528 0.703,-0.54 0.756,-0.54C0.799,-0.54 0.837,-0.532 0.87,-0.515C0.903,-0.499 0.929,-0.473 0.947,-0.439C0.966,-0.404 0.975,-0.36 0.975,-0.306L0.975,-0L0.85,-0L0.85,-0.29C0.85,-0.337 0.84,-0.372 0.819,-0.396C0.798,-0.419 0.769,-0.431 0.73,-0.431C0.703,-0.431 0.679,-0.425 0.658,-0.413C0.637,-0.401 0.62,-0.383 0.609,-0.36C0.597,-0.337 0.591,-0.307 0.591,-0.271L0.591,-0L0.466,-0L0.466,-0.29C0.466,-0.337 0.456,-0.372 0.435,-0.396C0.414,-0.419 0.385,-0.431 0.346,-0.431C0.319,-0.431 0.295,-0.425 0.274,-0.413C0.252,-0.401 0.236,-0.383 0.225,-0.36C0.213,-0.337 0.207,-0.307 0.207,-0.271L0.207,-0L0.082,-0Z" style="fill:white;fill-opacity:0.75;fill-rule:nonzero;"/>
                    </g>
                    <g transform="matrix(10.539397,0,0,10.539397,382.734502,38.482399)">
                        <path d="M0.411,-0L0.411,-0.108L0.404,-0.131L0.404,-0.32C0.404,-0.357 0.393,-0.385 0.371,-0.405C0.349,-0.426 0.315,-0.436 0.271,-0.436C0.241,-0.436 0.211,-0.431 0.183,-0.422C0.154,-0.413 0.129,-0.4 0.109,-0.383L0.06,-0.474C0.089,-0.496 0.123,-0.512 0.163,-0.524C0.202,-0.535 0.244,-0.54 0.286,-0.54C0.363,-0.54 0.423,-0.522 0.466,-0.485C0.508,-0.448 0.529,-0.391 0.529,-0.313L0.529,-0L0.411,-0ZM0.243,0.007C0.203,0.007 0.168,-0 0.138,-0.014C0.108,-0.027 0.084,-0.046 0.068,-0.071C0.052,-0.095 0.044,-0.122 0.044,-0.153C0.044,-0.183 0.051,-0.21 0.066,-0.234C0.08,-0.258 0.104,-0.277 0.136,-0.291C0.169,-0.305 0.212,-0.312 0.266,-0.312L0.421,-0.312L0.421,-0.229L0.275,-0.229C0.232,-0.229 0.204,-0.222 0.189,-0.208C0.174,-0.195 0.167,-0.178 0.167,-0.158C0.167,-0.135 0.176,-0.117 0.194,-0.104C0.212,-0.091 0.237,-0.084 0.269,-0.084C0.3,-0.084 0.327,-0.091 0.352,-0.105C0.376,-0.119 0.394,-0.139 0.404,-0.167L0.425,-0.092C0.413,-0.06 0.392,-0.036 0.361,-0.019C0.33,-0.002 0.291,0.007 0.243,0.007Z" style="fill:white;fill-opacity:0.75;fill-rule:nonzero;"/>
                    </g>
                    <g transform="matrix(10.539397,0,0,10.539397,389.129644,38.482399)">
                        <path d="M0.082,-0L0.082,-0.534L0.201,-0.534L0.201,-0.39L0.18,-0.434C0.199,-0.468 0.226,-0.495 0.261,-0.513C0.297,-0.531 0.338,-0.54 0.385,-0.54C0.428,-0.54 0.466,-0.532 0.5,-0.515C0.533,-0.499 0.559,-0.473 0.579,-0.439C0.598,-0.404 0.608,-0.36 0.608,-0.306L0.608,-0L0.483,-0L0.483,-0.29C0.483,-0.337 0.472,-0.372 0.45,-0.396C0.427,-0.419 0.396,-0.431 0.356,-0.431C0.327,-0.431 0.301,-0.425 0.278,-0.413C0.255,-0.401 0.238,-0.383 0.226,-0.359C0.213,-0.336 0.207,-0.306 0.207,-0.27L0.207,-0L0.082,-0Z" style="fill:white;fill-opacity:0.75;fill-rule:nonzero;"/>
                    </g>
                    <g transform="matrix(10.539397,0,0,10.539397,396.353946,38.482399)">
                        <rect x="0.055" y="-0.33" width="0.276" height="0.105" style="fill:white;fill-opacity:0.75;fill-rule:nonzero;"/>
                    </g>
                    <g transform="matrix(10.539397,0,0,10.539397,400.409252,38.482399)">
                        <path d="M0.082,-0L0.082,-0.534L0.207,-0.534L0.207,-0L0.082,-0ZM0.145,-0.622C0.122,-0.622 0.102,-0.629 0.088,-0.644C0.073,-0.659 0.065,-0.676 0.065,-0.697C0.065,-0.718 0.073,-0.736 0.088,-0.751C0.102,-0.765 0.122,-0.772 0.145,-0.772C0.168,-0.772 0.188,-0.765 0.203,-0.752C0.218,-0.738 0.225,-0.721 0.225,-0.7C0.225,-0.678 0.218,-0.659 0.203,-0.644C0.188,-0.63 0.169,-0.622 0.145,-0.622Z" style="fill:white;fill-opacity:0.75;fill-rule:nonzero;"/>
                    </g>
                    <g transform="matrix(10.539397,0,0,10.539397,403.45968,38.482399)">
                        <path d="M0.082,-0L0.082,-0.534L0.201,-0.534L0.201,-0.39L0.18,-0.434C0.199,-0.468 0.226,-0.495 0.261,-0.513C0.297,-0.531 0.338,-0.54 0.385,-0.54C0.428,-0.54 0.466,-0.532 0.5,-0.515C0.533,-0.499 0.559,-0.473 0.579,-0.439C0.598,-0.404 0.608,-0.36 0.608,-0.306L0.608,-0L0.483,-0L0.483,-0.29C0.483,-0.337 0.472,-0.372 0.45,-0.396C0.427,-0.419 0.396,-0.431 0.356,-0.431C0.327,-0.431 0.301,-0.425 0.278,-0.413C0.255,-0.401 0.238,-0.383 0.226,-0.359C0.213,-0.336 0.207,-0.306 0.207,-0.27L0.207,-0L0.082,-0Z" style="fill:white;fill-opacity:0.75;fill-rule:nonzero;"/>
                    </g>
                    <g transform="matrix(10.539397,0,0,10.539397,410.683982,38.482399)">
                        <rect x="0.055" y="-0.33" width="0.276" height="0.105" style="fill:white;fill-opacity:0.75;fill-rule:nonzero;"/>
                    </g>
                    <g transform="matrix(10.539397,0,0,10.539397,414.844682,38.482399)">
                        <path d="M0.283,0.007C0.224,0.007 0.179,-0.009 0.147,-0.039C0.115,-0.069 0.099,-0.114 0.099,-0.173L0.099,-0.652L0.224,-0.652L0.224,-0.176C0.224,-0.15 0.23,-0.131 0.243,-0.117C0.256,-0.103 0.275,-0.096 0.298,-0.096C0.326,-0.096 0.349,-0.103 0.368,-0.118L0.403,-0.029C0.388,-0.017 0.37,-0.008 0.349,-0.002C0.327,0.004 0.305,0.007 0.283,0.007ZM0.011,-0.434L0.011,-0.534L0.367,-0.534L0.367,-0.434L0.011,-0.434Z" style="fill:white;fill-opacity:0.75;fill-rule:nonzero;"/>
                    </g>
                    <g transform="matrix(10.539397,0,0,10.539397,419.316565,38.482399)">
                        <path d="M0.082,-0L0.082,-0.742L0.207,-0.742L0.207,-0.39L0.18,-0.434C0.199,-0.468 0.226,-0.495 0.261,-0.513C0.297,-0.531 0.338,-0.54 0.385,-0.54C0.428,-0.54 0.466,-0.532 0.5,-0.515C0.533,-0.499 0.559,-0.473 0.579,-0.439C0.598,-0.404 0.608,-0.36 0.608,-0.306L0.608,-0L0.483,-0L0.483,-0.29C0.483,-0.337 0.472,-0.372 0.45,-0.396C0.427,-0.419 0.396,-0.431 0.356,-0.431C0.327,-0.431 0.301,-0.425 0.278,-0.413C0.255,-0.401 0.238,-0.383 0.226,-0.359C0.213,-0.336 0.207,-0.306 0.207,-0.27L0.207,-0L0.082,-0Z" style="fill:white;fill-opacity:0.75;fill-rule:nonzero;"/>
                    </g>
                    <g transform="matrix(10.539397,0,0,10.539397,426.551407,38.482399)">
                        <path d="M0.333,0.007C0.274,0.007 0.222,-0.005 0.177,-0.029C0.133,-0.052 0.099,-0.085 0.074,-0.126C0.05,-0.167 0.038,-0.214 0.038,-0.267C0.038,-0.32 0.049,-0.367 0.073,-0.408C0.097,-0.45 0.13,-0.482 0.172,-0.505C0.213,-0.529 0.261,-0.54 0.314,-0.54C0.366,-0.54 0.412,-0.529 0.453,-0.506C0.494,-0.483 0.526,-0.451 0.549,-0.41C0.572,-0.369 0.584,-0.32 0.584,-0.264C0.584,-0.258 0.584,-0.253 0.584,-0.246C0.583,-0.239 0.583,-0.233 0.582,-0.227L0.137,-0.227L0.137,-0.31L0.516,-0.31L0.467,-0.284C0.467,-0.314 0.461,-0.341 0.448,-0.365C0.435,-0.388 0.417,-0.406 0.394,-0.42C0.371,-0.433 0.344,-0.44 0.314,-0.44C0.284,-0.44 0.257,-0.433 0.234,-0.42C0.21,-0.406 0.192,-0.388 0.179,-0.364C0.167,-0.34 0.16,-0.313 0.16,-0.281L0.16,-0.261C0.16,-0.229 0.167,-0.201 0.182,-0.176C0.197,-0.152 0.217,-0.133 0.244,-0.119C0.27,-0.105 0.301,-0.099 0.336,-0.099C0.366,-0.099 0.393,-0.103 0.417,-0.113C0.441,-0.123 0.462,-0.137 0.481,-0.157L0.548,-0.08C0.524,-0.052 0.494,-0.03 0.457,-0.016C0.421,-0.001 0.379,0.007 0.333,0.007Z" style="fill:white;fill-opacity:0.75;fill-rule:nonzero;"/>
                    </g>
                    <g transform="matrix(10.539397,0,0,10.539397,433.208671,38.482399)">
                        <rect x="0.055" y="-0.33" width="0.276" height="0.105" style="fill:white;fill-opacity:0.75;fill-rule:nonzero;"/>
                    </g>
                    <g transform="matrix(10.539397,0,0,10.539397,437.263977,38.482399)">
                        <rect x="0.082" y="-0.742" width="0.125" height="0.742" style="fill:white;fill-opacity:0.75;fill-rule:nonzero;"/>
                    </g>
                    <g transform="matrix(10.539397,0,0,10.539397,440.314405,38.482399)">
                        <path d="M0.322,0.007C0.268,0.007 0.219,-0.005 0.176,-0.029C0.133,-0.052 0.099,-0.085 0.075,-0.126C0.05,-0.167 0.038,-0.214 0.038,-0.267C0.038,-0.321 0.05,-0.368 0.075,-0.409C0.1,-0.45 0.133,-0.482 0.176,-0.505C0.219,-0.529 0.267,-0.54 0.322,-0.54C0.377,-0.54 0.427,-0.529 0.47,-0.505C0.512,-0.482 0.546,-0.45 0.571,-0.409C0.595,-0.368 0.607,-0.321 0.607,-0.267C0.607,-0.214 0.595,-0.167 0.571,-0.126C0.546,-0.084 0.513,-0.052 0.469,-0.029C0.426,-0.005 0.377,0.007 0.322,0.007ZM0.322,-0.1C0.353,-0.1 0.38,-0.107 0.404,-0.12C0.428,-0.134 0.447,-0.153 0.46,-0.178C0.474,-0.204 0.481,-0.233 0.481,-0.267C0.481,-0.302 0.474,-0.331 0.46,-0.356C0.447,-0.381 0.428,-0.4 0.404,-0.414C0.38,-0.427 0.353,-0.434 0.323,-0.434C0.293,-0.434 0.266,-0.427 0.242,-0.414C0.218,-0.4 0.199,-0.381 0.185,-0.356C0.171,-0.331 0.164,-0.302 0.164,-0.267C0.164,-0.233 0.171,-0.204 0.185,-0.178C0.199,-0.153 0.218,-0.134 0.242,-0.12C0.265,-0.107 0.292,-0.1 0.322,-0.1Z" style="fill:white;fill-opacity:0.75;fill-rule:nonzero;"/>
                    </g>
                    <g transform="matrix(10.539397,0,0,10.539397,447.111407,38.482399)">
                        <path d="M0.322,0.007C0.268,0.007 0.219,-0.005 0.176,-0.029C0.133,-0.052 0.099,-0.085 0.075,-0.126C0.05,-0.167 0.038,-0.214 0.038,-0.267C0.038,-0.321 0.05,-0.368 0.075,-0.409C0.1,-0.45 0.133,-0.482 0.176,-0.505C0.219,-0.529 0.267,-0.54 0.322,-0.54C0.377,-0.54 0.427,-0.529 0.47,-0.505C0.512,-0.482 0.546,-0.45 0.571,-0.409C0.595,-0.368 0.607,-0.321 0.607,-0.267C0.607,-0.214 0.595,-0.167 0.571,-0.126C0.546,-0.084 0.513,-0.052 0.469,-0.029C0.426,-0.005 0.377,0.007 0.322,0.007ZM0.322,-0.1C0.353,-0.1 0.38,-0.107 0.404,-0.12C0.428,-0.134 0.447,-0.153 0.46,-0.178C0.474,-0.204 0.481,-0.233 0.481,-0.267C0.481,-0.302 0.474,-0.331 0.46,-0.356C0.447,-0.381 0.428,-0.4 0.404,-0.414C0.38,-0.427 0.353,-0.434 0.323,-0.434C0.293,-0.434 0.266,-0.427 0.242,-0.414C0.218,-0.4 0.199,-0.381 0.185,-0.356C0.171,-0.331 0.164,-0.302 0.164,-0.267C0.164,-0.233 0.171,-0.204 0.185,-0.178C0.199,-0.153 0.218,-0.134 0.242,-0.12C0.265,-0.107 0.292,-0.1 0.322,-0.1Z" style="fill:white;fill-opacity:0.75;fill-rule:nonzero;"/>
                    </g>
                    <g transform="matrix(10.539397,0,0,10.539397,453.908409,38.482399)">
                        <path d="M0.378,0.007C0.335,0.007 0.295,-0.003 0.259,-0.023C0.224,-0.043 0.195,-0.073 0.175,-0.114C0.154,-0.154 0.143,-0.205 0.143,-0.267C0.143,-0.329 0.153,-0.381 0.174,-0.421C0.194,-0.461 0.221,-0.491 0.257,-0.511C0.293,-0.531 0.333,-0.54 0.378,-0.54C0.431,-0.54 0.477,-0.529 0.517,-0.506C0.558,-0.484 0.59,-0.452 0.613,-0.411C0.637,-0.37 0.649,-0.322 0.649,-0.267C0.649,-0.212 0.637,-0.164 0.613,-0.123C0.59,-0.082 0.558,-0.05 0.517,-0.027C0.477,-0.005 0.431,0.007 0.378,0.007ZM0.082,0.194L0.082,-0.534L0.201,-0.534L0.201,-0.408L0.197,-0.266L0.207,-0.124L0.207,0.194L0.082,0.194ZM0.364,-0.1C0.394,-0.1 0.421,-0.107 0.444,-0.12C0.468,-0.134 0.487,-0.153 0.501,-0.178C0.515,-0.204 0.522,-0.233 0.522,-0.267C0.522,-0.301 0.515,-0.331 0.501,-0.356C0.487,-0.381 0.468,-0.4 0.444,-0.414C0.421,-0.427 0.394,-0.434 0.364,-0.434C0.334,-0.434 0.307,-0.427 0.283,-0.414C0.259,-0.4 0.24,-0.381 0.226,-0.356C0.212,-0.331 0.205,-0.301 0.205,-0.267C0.205,-0.233 0.212,-0.204 0.226,-0.178C0.24,-0.153 0.259,-0.134 0.283,-0.12C0.307,-0.107 0.334,-0.1 0.364,-0.1Z" style="fill:white;fill-opacity:0.75;fill-rule:nonzero;"/>
                    </g>
                    <g transform="matrix(10.539397,0,0,10.539397,461.139162,38.482399)">
                    </g>
                    <g transform="matrix(10.539397,0,0,10.539397,464.044037,38.482399)">
                        <path d="M0.082,-0L0.082,-0.534L0.201,-0.534L0.201,-0.387L0.187,-0.43C0.203,-0.466 0.228,-0.494 0.263,-0.512C0.297,-0.531 0.34,-0.54 0.391,-0.54L0.391,-0.421C0.385,-0.422 0.38,-0.423 0.376,-0.423C0.371,-0.423 0.367,-0.424 0.362,-0.424C0.315,-0.424 0.277,-0.41 0.249,-0.382C0.221,-0.355 0.207,-0.314 0.207,-0.259L0.207,-0L0.082,-0Z" style="fill:white;fill-opacity:0.75;fill-rule:nonzero;"/>
                    </g>
                    <g transform="matrix(10.539397,0,0,10.539397,468.020569,38.482399)">
                        <path d="M0.411,-0L0.411,-0.108L0.404,-0.131L0.404,-0.32C0.404,-0.357 0.393,-0.385 0.371,-0.405C0.349,-0.426 0.315,-0.436 0.271,-0.436C0.241,-0.436 0.211,-0.431 0.183,-0.422C0.154,-0.413 0.129,-0.4 0.109,-0.383L0.06,-0.474C0.089,-0.496 0.123,-0.512 0.163,-0.524C0.202,-0.535 0.244,-0.54 0.286,-0.54C0.363,-0.54 0.423,-0.522 0.466,-0.485C0.508,-0.448 0.529,-0.391 0.529,-0.313L0.529,-0L0.411,-0ZM0.243,0.007C0.203,0.007 0.168,-0 0.138,-0.014C0.108,-0.027 0.084,-0.046 0.068,-0.071C0.052,-0.095 0.044,-0.122 0.044,-0.153C0.044,-0.183 0.051,-0.21 0.066,-0.234C0.08,-0.258 0.104,-0.277 0.136,-0.291C0.169,-0.305 0.212,-0.312 0.266,-0.312L0.421,-0.312L0.421,-0.229L0.275,-0.229C0.232,-0.229 0.204,-0.222 0.189,-0.208C0.174,-0.195 0.167,-0.178 0.167,-0.158C0.167,-0.135 0.176,-0.117 0.194,-0.104C0.212,-0.091 0.237,-0.084 0.269,-0.084C0.3,-0.084 0.327,-0.091 0.352,-0.105C0.376,-0.119 0.394,-0.139 0.404,-0.167L0.425,-0.092C0.413,-0.06 0.392,-0.036 0.361,-0.019C0.33,-0.002 0.291,0.007 0.243,0.007Z" style="fill:white;fill-opacity:0.75;fill-rule:nonzero;"/>
                    </g>
                    <g transform="matrix(10.539397,0,0,10.539397,474.415711,38.482399)">
                        <path d="M0.247,0.007C0.203,0.007 0.16,0.001 0.119,-0.011C0.078,-0.022 0.045,-0.036 0.021,-0.053L0.069,-0.148C0.093,-0.132 0.122,-0.12 0.155,-0.11C0.188,-0.1 0.222,-0.095 0.255,-0.095C0.295,-0.095 0.323,-0.1 0.341,-0.111C0.358,-0.121 0.367,-0.136 0.367,-0.154C0.367,-0.169 0.361,-0.18 0.349,-0.188C0.337,-0.195 0.321,-0.201 0.302,-0.205C0.282,-0.209 0.261,-0.213 0.237,-0.216C0.214,-0.219 0.19,-0.224 0.167,-0.23C0.143,-0.235 0.122,-0.244 0.102,-0.254C0.083,-0.265 0.067,-0.28 0.055,-0.299C0.043,-0.318 0.037,-0.343 0.037,-0.373C0.037,-0.407 0.047,-0.436 0.066,-0.461C0.085,-0.486 0.112,-0.506 0.147,-0.52C0.182,-0.534 0.224,-0.54 0.272,-0.54C0.308,-0.54 0.344,-0.536 0.381,-0.528C0.418,-0.52 0.448,-0.508 0.472,-0.494L0.424,-0.399C0.399,-0.414 0.374,-0.425 0.348,-0.43C0.322,-0.436 0.296,-0.439 0.271,-0.439C0.233,-0.439 0.205,-0.433 0.187,-0.422C0.168,-0.411 0.159,-0.396 0.159,-0.379C0.159,-0.363 0.165,-0.351 0.177,-0.343C0.189,-0.335 0.205,-0.329 0.224,-0.324C0.244,-0.32 0.265,-0.316 0.289,-0.312C0.312,-0.309 0.336,-0.305 0.359,-0.299C0.383,-0.293 0.404,-0.285 0.424,-0.274C0.443,-0.264 0.459,-0.249 0.471,-0.231C0.483,-0.212 0.489,-0.188 0.489,-0.158C0.489,-0.124 0.479,-0.095 0.459,-0.071C0.44,-0.046 0.412,-0.027 0.376,-0.014C0.34,-0 0.297,0.007 0.247,0.007Z" style="fill:white;fill-opacity:0.75;fill-rule:nonzero;"/>
                    </g>
                    <g transform="matrix(10.539397,0,0,10.539397,479.847406,38.482399)">
                        <path d="M0.283,0.007C0.224,0.007 0.179,-0.009 0.147,-0.039C0.115,-0.069 0.099,-0.114 0.099,-0.173L0.099,-0.652L0.224,-0.652L0.224,-0.176C0.224,-0.15 0.23,-0.131 0.243,-0.117C0.256,-0.103 0.275,-0.096 0.298,-0.096C0.326,-0.096 0.349,-0.103 0.368,-0.118L0.403,-0.029C0.388,-0.017 0.37,-0.008 0.349,-0.002C0.327,0.004 0.305,0.007 0.283,0.007ZM0.011,-0.434L0.011,-0.534L0.367,-0.534L0.367,-0.434L0.011,-0.434Z" style="fill:white;fill-opacity:0.75;fill-rule:nonzero;"/>
                    </g>
                    <g transform="matrix(10.539397,0,0,10.539397,484.129581,38.482399)">
                        <path d="M0.333,0.007C0.274,0.007 0.222,-0.005 0.177,-0.029C0.133,-0.052 0.099,-0.085 0.074,-0.126C0.05,-0.167 0.038,-0.214 0.038,-0.267C0.038,-0.32 0.049,-0.367 0.073,-0.408C0.097,-0.45 0.13,-0.482 0.172,-0.505C0.213,-0.529 0.261,-0.54 0.314,-0.54C0.366,-0.54 0.412,-0.529 0.453,-0.506C0.494,-0.483 0.526,-0.451 0.549,-0.41C0.572,-0.369 0.584,-0.32 0.584,-0.264C0.584,-0.258 0.584,-0.253 0.584,-0.246C0.583,-0.239 0.583,-0.233 0.582,-0.227L0.137,-0.227L0.137,-0.31L0.516,-0.31L0.467,-0.284C0.467,-0.314 0.461,-0.341 0.448,-0.365C0.435,-0.388 0.417,-0.406 0.394,-0.42C0.371,-0.433 0.344,-0.44 0.314,-0.44C0.284,-0.44 0.257,-0.433 0.234,-0.42C0.21,-0.406 0.192,-0.388 0.179,-0.364C0.167,-0.34 0.16,-0.313 0.16,-0.281L0.16,-0.261C0.16,-0.229 0.167,-0.201 0.182,-0.176C0.197,-0.152 0.217,-0.133 0.244,-0.119C0.27,-0.105 0.301,-0.099 0.336,-0.099C0.366,-0.099 0.393,-0.103 0.417,-0.113C0.441,-0.123 0.462,-0.137 0.481,-0.157L0.548,-0.08C0.524,-0.052 0.494,-0.03 0.457,-0.016C0.421,-0.001 0.379,0.007 0.333,0.007Z" style="fill:white;fill-opacity:0.75;fill-rule:nonzero;"/>
                    </g>
                    <g transform="matrix(10.539397,0,0,10.539397,490.681451,38.482399)">
                        <path d="M0.082,-0L0.082,-0.534L0.201,-0.534L0.201,-0.387L0.187,-0.43C0.203,-0.466 0.228,-0.494 0.263,-0.512C0.297,-0.531 0.34,-0.54 0.391,-0.54L0.391,-0.421C0.385,-0.422 0.38,-0.423 0.376,-0.423C0.371,-0.423 0.367,-0.424 0.362,-0.424C0.315,-0.424 0.277,-0.41 0.249,-0.382C0.221,-0.355 0.207,-0.314 0.207,-0.259L0.207,-0L0.082,-0Z" style="fill:white;fill-opacity:0.75;fill-rule:nonzero;"/>
                    </g>
                    <g transform="matrix(10.539397,0,0,10.539397,495.111177,38.482399)">
                    </g>
                    <g transform="matrix(10.539397,0,0,10.539397,498.016053,38.482399)">
                        <path d="M0.308,0.007C0.257,0.007 0.211,-0.005 0.17,-0.028C0.129,-0.05 0.097,-0.082 0.073,-0.123C0.05,-0.164 0.038,-0.212 0.038,-0.267C0.038,-0.322 0.05,-0.37 0.073,-0.411C0.097,-0.452 0.129,-0.484 0.17,-0.506C0.211,-0.529 0.257,-0.54 0.308,-0.54C0.353,-0.54 0.393,-0.531 0.428,-0.511C0.463,-0.491 0.491,-0.461 0.512,-0.421C0.533,-0.381 0.543,-0.329 0.543,-0.267C0.543,-0.205 0.533,-0.154 0.513,-0.113C0.493,-0.073 0.465,-0.043 0.43,-0.023C0.395,-0.003 0.354,0.007 0.308,0.007ZM0.323,-0.1C0.353,-0.1 0.38,-0.107 0.404,-0.12C0.428,-0.134 0.447,-0.153 0.461,-0.178C0.475,-0.204 0.482,-0.233 0.482,-0.267C0.482,-0.301 0.475,-0.331 0.461,-0.356C0.447,-0.381 0.428,-0.4 0.404,-0.414C0.38,-0.427 0.353,-0.434 0.323,-0.434C0.293,-0.434 0.266,-0.427 0.242,-0.414C0.219,-0.4 0.2,-0.381 0.186,-0.356C0.171,-0.331 0.164,-0.301 0.164,-0.267C0.164,-0.233 0.171,-0.204 0.186,-0.178C0.2,-0.153 0.219,-0.134 0.242,-0.12C0.266,-0.107 0.293,-0.1 0.323,-0.1ZM0.485,-0L0.485,-0.126L0.489,-0.268L0.48,-0.41L0.48,-0.742L0.605,-0.742L0.605,-0L0.485,-0Z" style="fill:white;fill-opacity:0.75;fill-rule:nonzero;"/>
                    </g>
                    <g transform="matrix(10.539397,0,0,10.539397,505.25362,38.482399)">
                        <path d="M0.082,-0L0.082,-0.534L0.207,-0.534L0.207,-0L0.082,-0ZM0.145,-0.622C0.122,-0.622 0.102,-0.629 0.088,-0.644C0.073,-0.659 0.065,-0.676 0.065,-0.697C0.065,-0.718 0.073,-0.736 0.088,-0.751C0.102,-0.765 0.122,-0.772 0.145,-0.772C0.168,-0.772 0.188,-0.765 0.203,-0.752C0.218,-0.738 0.225,-0.721 0.225,-0.7C0.225,-0.678 0.218,-0.659 0.203,-0.644C0.188,-0.63 0.169,-0.622 0.145,-0.622Z" style="fill:white;fill-opacity:0.75;fill-rule:nonzero;"/>
                    </g>
                    <g transform="matrix(10.539397,0,0,10.539397,508.304048,38.482399)">
                        <path d="M0.324,0.201C0.274,0.201 0.226,0.194 0.179,0.181C0.133,0.169 0.094,0.15 0.064,0.125L0.12,0.031C0.143,0.05 0.173,0.066 0.208,0.078C0.244,0.089 0.28,0.095 0.317,0.095C0.376,0.095 0.419,0.082 0.446,0.055C0.474,0.028 0.487,-0.013 0.487,-0.067L0.487,-0.162L0.497,-0.283L0.493,-0.404L0.493,-0.534L0.612,-0.534L0.612,-0.081C0.612,0.016 0.588,0.087 0.538,0.132C0.489,0.178 0.417,0.201 0.324,0.201ZM0.308,-0.024C0.257,-0.024 0.211,-0.035 0.17,-0.056C0.129,-0.078 0.097,-0.108 0.073,-0.147C0.049,-0.186 0.038,-0.231 0.038,-0.283C0.038,-0.334 0.049,-0.38 0.073,-0.418C0.097,-0.457 0.129,-0.487 0.17,-0.508C0.211,-0.53 0.257,-0.54 0.308,-0.54C0.353,-0.54 0.394,-0.531 0.43,-0.513C0.466,-0.495 0.495,-0.467 0.517,-0.429C0.538,-0.391 0.549,-0.342 0.549,-0.283C0.549,-0.223 0.538,-0.174 0.517,-0.136C0.495,-0.098 0.466,-0.07 0.43,-0.052C0.394,-0.033 0.353,-0.024 0.308,-0.024ZM0.327,-0.13C0.359,-0.13 0.387,-0.137 0.411,-0.15C0.436,-0.162 0.455,-0.18 0.469,-0.203C0.482,-0.226 0.489,-0.253 0.489,-0.283C0.489,-0.313 0.482,-0.339 0.469,-0.362C0.455,-0.385 0.436,-0.403 0.411,-0.415C0.387,-0.428 0.359,-0.434 0.327,-0.434C0.295,-0.434 0.267,-0.428 0.243,-0.415C0.218,-0.403 0.198,-0.385 0.185,-0.362C0.171,-0.339 0.164,-0.313 0.164,-0.283C0.164,-0.253 0.171,-0.226 0.185,-0.203C0.198,-0.18 0.218,-0.162 0.243,-0.15C0.267,-0.137 0.295,-0.13 0.327,-0.13Z" style="fill:white;fill-opacity:0.75;fill-rule:nonzero;"/>
                    </g>
                    <g transform="matrix(10.539397,0,0,10.539397,515.623205,38.482399)">
                        <path d="M0.082,-0L0.082,-0.534L0.207,-0.534L0.207,-0L0.082,-0ZM0.145,-0.622C0.122,-0.622 0.102,-0.629 0.088,-0.644C0.073,-0.659 0.065,-0.676 0.065,-0.697C0.065,-0.718 0.073,-0.736 0.088,-0.751C0.102,-0.765 0.122,-0.772 0.145,-0.772C0.168,-0.772 0.188,-0.765 0.203,-0.752C0.218,-0.738 0.225,-0.721 0.225,-0.7C0.225,-0.678 0.218,-0.659 0.203,-0.644C0.188,-0.63 0.169,-0.622 0.145,-0.622Z" style="fill:white;fill-opacity:0.75;fill-rule:nonzero;"/>
                    </g>
                    <g transform="matrix(10.539397,0,0,10.539397,518.673632,38.482399)">
                        <path d="M0.283,0.007C0.224,0.007 0.179,-0.009 0.147,-0.039C0.115,-0.069 0.099,-0.114 0.099,-0.173L0.099,-0.652L0.224,-0.652L0.224,-0.176C0.224,-0.15 0.23,-0.131 0.243,-0.117C0.256,-0.103 0.275,-0.096 0.298,-0.096C0.326,-0.096 0.349,-0.103 0.368,-0.118L0.403,-0.029C0.388,-0.017 0.37,-0.008 0.349,-0.002C0.327,0.004 0.305,0.007 0.283,0.007ZM0.011,-0.434L0.011,-0.534L0.367,-0.534L0.367,-0.434L0.011,-0.434Z" style="fill:white;fill-opacity:0.75;fill-rule:nonzero;"/>
                    </g>
                    <g transform="matrix(10.539397,0,0,10.539397,523.145516,38.482399)">
                        <path d="M0.082,-0L0.082,-0.534L0.207,-0.534L0.207,-0L0.082,-0ZM0.145,-0.622C0.122,-0.622 0.102,-0.629 0.088,-0.644C0.073,-0.659 0.065,-0.676 0.065,-0.697C0.065,-0.718 0.073,-0.736 0.088,-0.751C0.102,-0.765 0.122,-0.772 0.145,-0.772C0.168,-0.772 0.188,-0.765 0.203,-0.752C0.218,-0.738 0.225,-0.721 0.225,-0.7C0.225,-0.678 0.218,-0.659 0.203,-0.644C0.188,-0.63 0.169,-0.622 0.145,-0.622Z" style="fill:white;fill-opacity:0.75;fill-rule:nonzero;"/>
                    </g>
                    <g transform="matrix(10.539397,0,0,10.539397,526.195944,38.482399)">
                        <path d="M0.038,-0L0.038,-0.079L0.367,-0.477L0.39,-0.434L0.044,-0.434L0.044,-0.534L0.49,-0.534L0.49,-0.455L0.161,-0.057L0.136,-0.1L0.499,-0.1L0.499,-0L0.038,-0Z" style="fill:white;fill-opacity:0.75;fill-rule:nonzero;"/>
                    </g>
                    <g transform="matrix(10.539397,0,0,10.539397,531.799632,38.482399)">
                        <path d="M0.411,-0L0.411,-0.108L0.404,-0.131L0.404,-0.32C0.404,-0.357 0.393,-0.385 0.371,-0.405C0.349,-0.426 0.315,-0.436 0.271,-0.436C0.241,-0.436 0.211,-0.431 0.183,-0.422C0.154,-0.413 0.129,-0.4 0.109,-0.383L0.06,-0.474C0.089,-0.496 0.123,-0.512 0.163,-0.524C0.202,-0.535 0.244,-0.54 0.286,-0.54C0.363,-0.54 0.423,-0.522 0.466,-0.485C0.508,-0.448 0.529,-0.391 0.529,-0.313L0.529,-0L0.411,-0ZM0.243,0.007C0.203,0.007 0.168,-0 0.138,-0.014C0.108,-0.027 0.084,-0.046 0.068,-0.071C0.052,-0.095 0.044,-0.122 0.044,-0.153C0.044,-0.183 0.051,-0.21 0.066,-0.234C0.08,-0.258 0.104,-0.277 0.136,-0.291C0.169,-0.305 0.212,-0.312 0.266,-0.312L0.421,-0.312L0.421,-0.229L0.275,-0.229C0.232,-0.229 0.204,-0.222 0.189,-0.208C0.174,-0.195 0.167,-0.178 0.167,-0.158C0.167,-0.135 0.176,-0.117 0.194,-0.104C0.212,-0.091 0.237,-0.084 0.269,-0.084C0.3,-0.084 0.327,-0.091 0.352,-0.105C0.376,-0.119 0.394,-0.139 0.404,-0.167L0.425,-0.092C0.413,-0.06 0.392,-0.036 0.361,-0.019C0.33,-0.002 0.291,0.007 0.243,0.007Z" style="fill:white;fill-opacity:0.75;fill-rule:nonzero;"/>
                    </g>
                    <g transform="matrix(10.539397,0,0,10.539397,538.194774,38.482399)">
                        <path d="M0.283,0.007C0.224,0.007 0.179,-0.009 0.147,-0.039C0.115,-0.069 0.099,-0.114 0.099,-0.173L0.099,-0.652L0.224,-0.652L0.224,-0.176C0.224,-0.15 0.23,-0.131 0.243,-0.117C0.256,-0.103 0.275,-0.096 0.298,-0.096C0.326,-0.096 0.349,-0.103 0.368,-0.118L0.403,-0.029C0.388,-0.017 0.37,-0.008 0.349,-0.002C0.327,0.004 0.305,0.007 0.283,0.007ZM0.011,-0.434L0.011,-0.534L0.367,-0.534L0.367,-0.434L0.011,-0.434Z" style="fill:white;fill-opacity:0.75;fill-rule:nonzero;"/>
                    </g>
                    <g transform="matrix(10.539397,0,0,10.539397,542.666657,38.482399)">
                        <path d="M0.082,-0L0.082,-0.534L0.207,-0.534L0.207,-0L0.082,-0ZM0.145,-0.622C0.122,-0.622 0.102,-0.629 0.088,-0.644C0.073,-0.659 0.065,-0.676 0.065,-0.697C0.065,-0.718 0.073,-0.736 0.088,-0.751C0.102,-0.765 0.122,-0.772 0.145,-0.772C0.168,-0.772 0.188,-0.765 0.203,-0.752C0.218,-0.738 0.225,-0.721 0.225,-0.7C0.225,-0.678 0.218,-0.659 0.203,-0.644C0.188,-0.63 0.169,-0.622 0.145,-0.622Z" style="fill:white;fill-opacity:0.75;fill-rule:nonzero;"/>
                    </g>
                    <g transform="matrix(10.539397,0,0,10.539397,545.717085,38.482399)">
                        <path d="M0.322,0.007C0.268,0.007 0.219,-0.005 0.176,-0.029C0.133,-0.052 0.099,-0.085 0.075,-0.126C0.05,-0.167 0.038,-0.214 0.038,-0.267C0.038,-0.321 0.05,-0.368 0.075,-0.409C0.1,-0.45 0.133,-0.482 0.176,-0.505C0.219,-0.529 0.267,-0.54 0.322,-0.54C0.377,-0.54 0.427,-0.529 0.47,-0.505C0.512,-0.482 0.546,-0.45 0.571,-0.409C0.595,-0.368 0.607,-0.321 0.607,-0.267C0.607,-0.214 0.595,-0.167 0.571,-0.126C0.546,-0.084 0.513,-0.052 0.469,-0.029C0.426,-0.005 0.377,0.007 0.322,0.007ZM0.322,-0.1C0.353,-0.1 0.38,-0.107 0.404,-0.12C0.428,-0.134 0.447,-0.153 0.46,-0.178C0.474,-0.204 0.481,-0.233 0.481,-0.267C0.481,-0.302 0.474,-0.331 0.46,-0.356C0.447,-0.381 0.428,-0.4 0.404,-0.414C0.38,-0.427 0.353,-0.434 0.323,-0.434C0.293,-0.434 0.266,-0.427 0.242,-0.414C0.218,-0.4 0.199,-0.381 0.185,-0.356C0.171,-0.331 0.164,-0.302 0.164,-0.267C0.164,-0.233 0.171,-0.204 0.185,-0.178C0.199,-0.153 0.218,-0.134 0.242,-0.12C0.265,-0.107 0.292,-0.1 0.322,-0.1Z" style="fill:white;fill-opacity:0.75;fill-rule:nonzero;"/>
                    </g>
                    <g transform="matrix(10.539397,0,0,10.539397,552.514087,38.482399)">
                        <path d="M0.082,-0L0.082,-0.534L0.201,-0.534L0.201,-0.39L0.18,-0.434C0.199,-0.468 0.226,-0.495 0.261,-0.513C0.297,-0.531 0.338,-0.54 0.385,-0.54C0.428,-0.54 0.466,-0.532 0.5,-0.515C0.533,-0.499 0.559,-0.473 0.579,-0.439C0.598,-0.404 0.608,-0.36 0.608,-0.306L0.608,-0L0.483,-0L0.483,-0.29C0.483,-0.337 0.472,-0.372 0.45,-0.396C0.427,-0.419 0.396,-0.431 0.356,-0.431C0.327,-0.431 0.301,-0.425 0.278,-0.413C0.255,-0.401 0.238,-0.383 0.226,-0.359C0.213,-0.336 0.207,-0.306 0.207,-0.27L0.207,-0L0.082,-0Z" style="fill:white;fill-opacity:0.75;fill-rule:nonzero;"/>
                    </g>
                    <g transform="matrix(10.539397,0,0,10.539397,559.738389,38.482399)">
                    </g>
                    <g transform="matrix(10.539397,0,0,10.539397,304.872801,51.329924)">
                        <path d="M0.422,0.01C0.367,0.01 0.317,0.001 0.271,-0.017C0.225,-0.035 0.185,-0.06 0.151,-0.093C0.117,-0.125 0.091,-0.163 0.072,-0.207C0.053,-0.25 0.044,-0.298 0.044,-0.35C0.044,-0.402 0.053,-0.45 0.072,-0.493C0.091,-0.537 0.117,-0.575 0.151,-0.607C0.185,-0.64 0.225,-0.665 0.271,-0.683C0.317,-0.701 0.367,-0.71 0.421,-0.71C0.476,-0.71 0.526,-0.701 0.572,-0.683C0.617,-0.665 0.657,-0.64 0.691,-0.608C0.725,-0.576 0.751,-0.538 0.77,-0.494C0.789,-0.45 0.798,-0.402 0.798,-0.35C0.798,-0.298 0.789,-0.25 0.77,-0.206C0.751,-0.162 0.725,-0.124 0.691,-0.092C0.657,-0.06 0.617,-0.035 0.572,-0.017C0.526,0.001 0.476,0.01 0.422,0.01ZM0.65,0.153C0.625,0.153 0.601,0.151 0.579,0.145C0.556,0.139 0.533,0.13 0.511,0.117C0.488,0.104 0.465,0.087 0.441,0.066C0.417,0.045 0.39,0.019 0.362,-0.012L0.5,-0.048C0.519,-0.023 0.537,-0.003 0.553,0.012C0.57,0.027 0.587,0.038 0.603,0.044C0.619,0.051 0.636,0.054 0.653,0.054C0.699,0.054 0.739,0.035 0.773,-0.002L0.833,0.07C0.786,0.126 0.725,0.153 0.65,0.153ZM0.421,-0.104C0.457,-0.104 0.489,-0.11 0.519,-0.122C0.549,-0.134 0.575,-0.151 0.597,-0.173C0.619,-0.196 0.636,-0.222 0.649,-0.252C0.661,-0.282 0.667,-0.315 0.667,-0.35C0.667,-0.386 0.661,-0.419 0.649,-0.449C0.636,-0.479 0.619,-0.505 0.597,-0.527C0.575,-0.549 0.549,-0.566 0.519,-0.578C0.489,-0.59 0.457,-0.596 0.421,-0.596C0.386,-0.596 0.353,-0.59 0.323,-0.578C0.293,-0.566 0.267,-0.549 0.245,-0.527C0.223,-0.505 0.205,-0.479 0.193,-0.449C0.181,-0.419 0.175,-0.386 0.175,-0.35C0.175,-0.315 0.181,-0.282 0.193,-0.252C0.205,-0.222 0.223,-0.196 0.245,-0.173C0.267,-0.151 0.293,-0.134 0.323,-0.122C0.353,-0.11 0.386,-0.104 0.421,-0.104Z" style="fill:white;fill-opacity:0.75;fill-rule:nonzero;"/>
                    </g>
                    <g transform="matrix(10.539397,0,0,10.539397,313.745974,51.329924)">
                        <path d="M0.421,0.01C0.367,0.01 0.316,0.001 0.27,-0.017C0.225,-0.034 0.185,-0.059 0.151,-0.092C0.117,-0.124 0.091,-0.162 0.072,-0.206C0.053,-0.25 0.044,-0.298 0.044,-0.35C0.044,-0.402 0.053,-0.45 0.072,-0.494C0.091,-0.538 0.117,-0.576 0.151,-0.608C0.185,-0.641 0.226,-0.666 0.272,-0.683C0.318,-0.701 0.368,-0.71 0.423,-0.71C0.482,-0.71 0.535,-0.7 0.583,-0.681C0.631,-0.662 0.671,-0.633 0.704,-0.596L0.622,-0.516C0.595,-0.544 0.565,-0.564 0.533,-0.577C0.502,-0.59 0.467,-0.596 0.429,-0.596C0.392,-0.596 0.358,-0.59 0.327,-0.578C0.296,-0.566 0.269,-0.549 0.246,-0.527C0.223,-0.505 0.206,-0.479 0.193,-0.449C0.181,-0.419 0.175,-0.386 0.175,-0.35C0.175,-0.315 0.181,-0.282 0.193,-0.252C0.206,-0.222 0.223,-0.196 0.246,-0.173C0.269,-0.151 0.296,-0.134 0.326,-0.122C0.357,-0.11 0.391,-0.104 0.428,-0.104C0.463,-0.104 0.496,-0.109 0.529,-0.12C0.561,-0.131 0.592,-0.15 0.621,-0.176L0.695,-0.079C0.658,-0.05 0.616,-0.028 0.568,-0.013C0.519,0.002 0.47,0.01 0.421,0.01ZM0.695,-0.079L0.572,-0.096L0.572,-0.358L0.695,-0.358L0.695,-0.079Z" style="fill:white;fill-opacity:0.75;fill-rule:nonzero;"/>
                    </g>
                    <g transform="matrix(10.539397,0,0,10.539397,321.8783,51.329924)">
                        <rect x="0.094" y="-0.7" width="0.13" height="0.7" style="fill:white;fill-opacity:0.75;fill-rule:nonzero;"/>
                    </g>
                    <g transform="matrix(10.539397,0,0,10.539397,325.236733,51.329924)">
                        <path d="M0.311,0.01C0.256,0.01 0.204,0.002 0.154,-0.014C0.104,-0.029 0.064,-0.049 0.035,-0.074L0.08,-0.175C0.108,-0.153 0.143,-0.134 0.184,-0.12C0.226,-0.105 0.268,-0.098 0.311,-0.098C0.348,-0.098 0.377,-0.102 0.4,-0.11C0.423,-0.118 0.439,-0.129 0.45,-0.142C0.461,-0.156 0.466,-0.172 0.466,-0.189C0.466,-0.21 0.458,-0.227 0.443,-0.24C0.428,-0.253 0.408,-0.263 0.384,-0.271C0.359,-0.279 0.332,-0.287 0.303,-0.293C0.273,-0.3 0.243,-0.307 0.213,-0.316C0.184,-0.325 0.157,-0.337 0.132,-0.352C0.108,-0.366 0.088,-0.385 0.073,-0.409C0.058,-0.433 0.05,-0.464 0.05,-0.501C0.05,-0.539 0.06,-0.574 0.081,-0.605C0.101,-0.637 0.132,-0.662 0.173,-0.681C0.215,-0.7 0.268,-0.71 0.332,-0.71C0.374,-0.71 0.416,-0.705 0.457,-0.694C0.498,-0.683 0.534,-0.668 0.565,-0.648L0.524,-0.547C0.493,-0.566 0.46,-0.58 0.427,-0.589C0.394,-0.598 0.362,-0.602 0.331,-0.602C0.295,-0.602 0.266,-0.598 0.243,-0.589C0.221,-0.581 0.204,-0.569 0.194,-0.555C0.184,-0.541 0.179,-0.525 0.179,-0.507C0.179,-0.486 0.186,-0.468 0.201,-0.456C0.217,-0.443 0.236,-0.433 0.261,-0.425C0.285,-0.418 0.312,-0.41 0.342,-0.404C0.372,-0.397 0.401,-0.389 0.431,-0.38C0.461,-0.372 0.488,-0.36 0.512,-0.346C0.537,-0.332 0.556,-0.313 0.572,-0.289C0.587,-0.265 0.594,-0.235 0.594,-0.198C0.594,-0.161 0.584,-0.126 0.564,-0.095C0.543,-0.063 0.512,-0.038 0.47,-0.019C0.428,0 0.375,0.01 0.311,0.01Z" style="fill:white;fill-opacity:0.75;fill-rule:nonzero;"/>
                    </g>
                    <g transform="matrix(10.539397,0,0,10.539397,331.867467,51.329924)">
                    </g>
                    <g transform="matrix(10.539397,0,0,10.539397,334.772343,51.329924)">
                        <path d="M0.378,0.007C0.335,0.007 0.295,-0.003 0.259,-0.023C0.224,-0.043 0.195,-0.073 0.175,-0.114C0.154,-0.154 0.143,-0.205 0.143,-0.267C0.143,-0.329 0.153,-0.381 0.174,-0.421C0.194,-0.461 0.221,-0.491 0.257,-0.511C0.293,-0.531 0.333,-0.54 0.378,-0.54C0.431,-0.54 0.477,-0.529 0.517,-0.506C0.558,-0.484 0.59,-0.452 0.613,-0.411C0.637,-0.37 0.649,-0.322 0.649,-0.267C0.649,-0.212 0.637,-0.164 0.613,-0.123C0.59,-0.082 0.558,-0.05 0.517,-0.027C0.477,-0.005 0.431,0.007 0.378,0.007ZM0.082,0.194L0.082,-0.534L0.201,-0.534L0.201,-0.408L0.197,-0.266L0.207,-0.124L0.207,0.194L0.082,0.194ZM0.364,-0.1C0.394,-0.1 0.421,-0.107 0.444,-0.12C0.468,-0.134 0.487,-0.153 0.501,-0.178C0.515,-0.204 0.522,-0.233 0.522,-0.267C0.522,-0.301 0.515,-0.331 0.501,-0.356C0.487,-0.381 0.468,-0.4 0.444,-0.414C0.421,-0.427 0.394,-0.434 0.364,-0.434C0.334,-0.434 0.307,-0.427 0.283,-0.414C0.259,-0.4 0.24,-0.381 0.226,-0.356C0.212,-0.331 0.205,-0.301 0.205,-0.267C0.205,-0.233 0.212,-0.204 0.226,-0.178C0.24,-0.153 0.259,-0.134 0.283,-0.12C0.307,-0.107 0.334,-0.1 0.364,-0.1Z" style="fill:white;fill-opacity:0.75;fill-rule:nonzero;"/>
                    </g>
                    <g transform="matrix(10.539397,0,0,10.539397,342.003096,51.329924)">
                        <rect x="0.082" y="-0.742" width="0.125" height="0.742" style="fill:white;fill-opacity:0.75;fill-rule:nonzero;"/>
                    </g>
                    <g transform="matrix(10.539397,0,0,10.539397,345.053524,51.329924)">
                        <path d="M0.308,0.007C0.263,0.007 0.223,-0.002 0.188,-0.019C0.153,-0.035 0.126,-0.061 0.107,-0.096C0.087,-0.132 0.078,-0.176 0.078,-0.229L0.078,-0.534L0.203,-0.534L0.203,-0.246C0.203,-0.198 0.214,-0.162 0.236,-0.139C0.257,-0.115 0.288,-0.103 0.328,-0.103C0.357,-0.103 0.383,-0.109 0.405,-0.121C0.427,-0.133 0.444,-0.151 0.456,-0.175C0.468,-0.199 0.474,-0.229 0.474,-0.264L0.474,-0.534L0.599,-0.534L0.599,-0L0.48,-0L0.48,-0.144L0.501,-0.1C0.483,-0.066 0.457,-0.039 0.422,-0.021C0.388,-0.003 0.35,0.007 0.308,0.007Z" style="fill:white;fill-opacity:0.75;fill-rule:nonzero;"/>
                    </g>
                    <g transform="matrix(10.539397,0,0,10.539397,352.235668,51.329924)">
                        <path d="M0.324,0.201C0.274,0.201 0.226,0.194 0.179,0.181C0.133,0.169 0.094,0.15 0.064,0.125L0.12,0.031C0.143,0.05 0.173,0.066 0.208,0.078C0.244,0.089 0.28,0.095 0.317,0.095C0.376,0.095 0.419,0.082 0.446,0.055C0.474,0.028 0.487,-0.013 0.487,-0.067L0.487,-0.162L0.497,-0.283L0.493,-0.404L0.493,-0.534L0.612,-0.534L0.612,-0.081C0.612,0.016 0.588,0.087 0.538,0.132C0.489,0.178 0.417,0.201 0.324,0.201ZM0.308,-0.024C0.257,-0.024 0.211,-0.035 0.17,-0.056C0.129,-0.078 0.097,-0.108 0.073,-0.147C0.049,-0.186 0.038,-0.231 0.038,-0.283C0.038,-0.334 0.049,-0.38 0.073,-0.418C0.097,-0.457 0.129,-0.487 0.17,-0.508C0.211,-0.53 0.257,-0.54 0.308,-0.54C0.353,-0.54 0.394,-0.531 0.43,-0.513C0.466,-0.495 0.495,-0.467 0.517,-0.429C0.538,-0.391 0.549,-0.342 0.549,-0.283C0.549,-0.223 0.538,-0.174 0.517,-0.136C0.495,-0.098 0.466,-0.07 0.43,-0.052C0.394,-0.033 0.353,-0.024 0.308,-0.024ZM0.327,-0.13C0.359,-0.13 0.387,-0.137 0.411,-0.15C0.436,-0.162 0.455,-0.18 0.469,-0.203C0.482,-0.226 0.489,-0.253 0.489,-0.283C0.489,-0.313 0.482,-0.339 0.469,-0.362C0.455,-0.385 0.436,-0.403 0.411,-0.415C0.387,-0.428 0.359,-0.434 0.327,-0.434C0.295,-0.434 0.267,-0.428 0.243,-0.415C0.218,-0.403 0.198,-0.385 0.185,-0.362C0.171,-0.339 0.164,-0.313 0.164,-0.283C0.164,-0.253 0.171,-0.226 0.185,-0.203C0.198,-0.18 0.218,-0.162 0.243,-0.15C0.267,-0.137 0.295,-0.13 0.327,-0.13Z" style="fill:white;fill-opacity:0.75;fill-rule:nonzero;"/>
                    </g>
                    <g transform="matrix(10.539397,0,0,10.539397,359.554825,51.329924)">
                        <path d="M0.082,-0L0.082,-0.534L0.207,-0.534L0.207,-0L0.082,-0ZM0.145,-0.622C0.122,-0.622 0.102,-0.629 0.088,-0.644C0.073,-0.659 0.065,-0.676 0.065,-0.697C0.065,-0.718 0.073,-0.736 0.088,-0.751C0.102,-0.765 0.122,-0.772 0.145,-0.772C0.168,-0.772 0.188,-0.765 0.203,-0.752C0.218,-0.738 0.225,-0.721 0.225,-0.7C0.225,-0.678 0.218,-0.659 0.203,-0.644C0.188,-0.63 0.169,-0.622 0.145,-0.622Z" style="fill:white;fill-opacity:0.75;fill-rule:nonzero;"/>
                    </g>
                    <g transform="matrix(10.539397,0,0,10.539397,362.605253,51.329924)">
                        <path d="M0.082,-0L0.082,-0.534L0.201,-0.534L0.201,-0.39L0.18,-0.434C0.199,-0.468 0.226,-0.495 0.261,-0.513C0.297,-0.531 0.338,-0.54 0.385,-0.54C0.428,-0.54 0.466,-0.532 0.5,-0.515C0.533,-0.499 0.559,-0.473 0.579,-0.439C0.598,-0.404 0.608,-0.36 0.608,-0.306L0.608,-0L0.483,-0L0.483,-0.29C0.483,-0.337 0.472,-0.372 0.45,-0.396C0.427,-0.419 0.396,-0.431 0.356,-0.431C0.327,-0.431 0.301,-0.425 0.278,-0.413C0.255,-0.401 0.238,-0.383 0.226,-0.359C0.213,-0.336 0.207,-0.306 0.207,-0.27L0.207,-0L0.082,-0Z" style="fill:white;fill-opacity:0.75;fill-rule:nonzero;"/>
                    </g>
                    <g transform="matrix(10.539397,0,0,10.539397,369.513373,51.329924)">
                    </g>
                    <g transform="matrix(10.539397,0,0,10.539397,372.418249,51.329924)">
                        <path d="M0.308,0.007C0.257,0.007 0.211,-0.005 0.17,-0.028C0.129,-0.05 0.097,-0.082 0.073,-0.123C0.05,-0.164 0.038,-0.212 0.038,-0.267C0.038,-0.322 0.05,-0.37 0.073,-0.411C0.097,-0.452 0.129,-0.484 0.17,-0.506C0.211,-0.529 0.257,-0.54 0.308,-0.54C0.353,-0.54 0.393,-0.531 0.428,-0.511C0.463,-0.491 0.491,-0.461 0.512,-0.421C0.533,-0.381 0.543,-0.329 0.543,-0.267C0.543,-0.205 0.533,-0.154 0.513,-0.113C0.493,-0.073 0.465,-0.043 0.43,-0.023C0.395,-0.003 0.354,0.007 0.308,0.007ZM0.323,-0.1C0.353,-0.1 0.38,-0.107 0.404,-0.12C0.428,-0.134 0.447,-0.153 0.461,-0.178C0.475,-0.204 0.482,-0.233 0.482,-0.267C0.482,-0.301 0.475,-0.331 0.461,-0.356C0.447,-0.381 0.428,-0.4 0.404,-0.414C0.38,-0.427 0.353,-0.434 0.323,-0.434C0.293,-0.434 0.266,-0.427 0.242,-0.414C0.219,-0.4 0.2,-0.381 0.186,-0.356C0.171,-0.331 0.164,-0.301 0.164,-0.267C0.164,-0.233 0.171,-0.204 0.186,-0.178C0.2,-0.153 0.219,-0.134 0.242,-0.12C0.266,-0.107 0.293,-0.1 0.323,-0.1ZM0.485,-0L0.485,-0.126L0.489,-0.268L0.48,-0.41L0.48,-0.742L0.605,-0.742L0.605,-0L0.485,-0Z" style="fill:white;fill-opacity:0.75;fill-rule:nonzero;"/>
                    </g>
                    <g transform="matrix(10.539397,0,0,10.539397,379.655816,51.329924)">
                        <path d="M0.333,0.007C0.274,0.007 0.222,-0.005 0.177,-0.029C0.133,-0.052 0.099,-0.085 0.074,-0.126C0.05,-0.167 0.038,-0.214 0.038,-0.267C0.038,-0.32 0.049,-0.367 0.073,-0.408C0.097,-0.45 0.13,-0.482 0.172,-0.505C0.213,-0.529 0.261,-0.54 0.314,-0.54C0.366,-0.54 0.412,-0.529 0.453,-0.506C0.494,-0.483 0.526,-0.451 0.549,-0.41C0.572,-0.369 0.584,-0.32 0.584,-0.264C0.584,-0.258 0.584,-0.253 0.584,-0.246C0.583,-0.239 0.583,-0.233 0.582,-0.227L0.137,-0.227L0.137,-0.31L0.516,-0.31L0.467,-0.284C0.467,-0.314 0.461,-0.341 0.448,-0.365C0.435,-0.388 0.417,-0.406 0.394,-0.42C0.371,-0.433 0.344,-0.44 0.314,-0.44C0.284,-0.44 0.257,-0.433 0.234,-0.42C0.21,-0.406 0.192,-0.388 0.179,-0.364C0.167,-0.34 0.16,-0.313 0.16,-0.281L0.16,-0.261C0.16,-0.229 0.167,-0.201 0.182,-0.176C0.197,-0.152 0.217,-0.133 0.244,-0.119C0.27,-0.105 0.301,-0.099 0.336,-0.099C0.366,-0.099 0.393,-0.103 0.417,-0.113C0.441,-0.123 0.462,-0.137 0.481,-0.157L0.548,-0.08C0.524,-0.052 0.494,-0.03 0.457,-0.016C0.421,-0.001 0.379,0.007 0.333,0.007Z" style="fill:white;fill-opacity:0.75;fill-rule:nonzero;"/>
                    </g>
                    <g transform="matrix(10.539397,0,0,10.539397,386.207686,51.329924)">
                        <path d="M0.247,0.007C0.203,0.007 0.16,0.001 0.119,-0.011C0.078,-0.022 0.045,-0.036 0.021,-0.053L0.069,-0.148C0.093,-0.132 0.122,-0.12 0.155,-0.11C0.188,-0.1 0.222,-0.095 0.255,-0.095C0.295,-0.095 0.323,-0.1 0.341,-0.111C0.358,-0.121 0.367,-0.136 0.367,-0.154C0.367,-0.169 0.361,-0.18 0.349,-0.188C0.337,-0.195 0.321,-0.201 0.302,-0.205C0.282,-0.209 0.261,-0.213 0.237,-0.216C0.214,-0.219 0.19,-0.224 0.167,-0.23C0.143,-0.235 0.122,-0.244 0.102,-0.254C0.083,-0.265 0.067,-0.28 0.055,-0.299C0.043,-0.318 0.037,-0.343 0.037,-0.373C0.037,-0.407 0.047,-0.436 0.066,-0.461C0.085,-0.486 0.112,-0.506 0.147,-0.52C0.182,-0.534 0.224,-0.54 0.272,-0.54C0.308,-0.54 0.344,-0.536 0.381,-0.528C0.418,-0.52 0.448,-0.508 0.472,-0.494L0.424,-0.399C0.399,-0.414 0.374,-0.425 0.348,-0.43C0.322,-0.436 0.296,-0.439 0.271,-0.439C0.233,-0.439 0.205,-0.433 0.187,-0.422C0.168,-0.411 0.159,-0.396 0.159,-0.379C0.159,-0.363 0.165,-0.351 0.177,-0.343C0.189,-0.335 0.205,-0.329 0.224,-0.324C0.244,-0.32 0.265,-0.316 0.289,-0.312C0.312,-0.309 0.336,-0.305 0.359,-0.299C0.383,-0.293 0.404,-0.285 0.424,-0.274C0.443,-0.264 0.459,-0.249 0.471,-0.231C0.483,-0.212 0.489,-0.188 0.489,-0.158C0.489,-0.124 0.479,-0.095 0.459,-0.071C0.44,-0.046 0.412,-0.027 0.376,-0.014C0.34,-0 0.297,0.007 0.247,0.007Z" style="fill:white;fill-opacity:0.75;fill-rule:nonzero;"/>
                    </g>
                    <g transform="matrix(10.539397,0,0,10.539397,391.639381,51.329924)">
                        <path d="M0.082,-0L0.082,-0.534L0.207,-0.534L0.207,-0L0.082,-0ZM0.145,-0.622C0.122,-0.622 0.102,-0.629 0.088,-0.644C0.073,-0.659 0.065,-0.676 0.065,-0.697C0.065,-0.718 0.073,-0.736 0.088,-0.751C0.102,-0.765 0.122,-0.772 0.145,-0.772C0.168,-0.772 0.188,-0.765 0.203,-0.752C0.218,-0.738 0.225,-0.721 0.225,-0.7C0.225,-0.678 0.218,-0.659 0.203,-0.644C0.188,-0.63 0.169,-0.622 0.145,-0.622Z" style="fill:white;fill-opacity:0.75;fill-rule:nonzero;"/>
                    </g>
                    <g transform="matrix(10.539397,0,0,10.539397,394.689809,51.329924)">
                        <path d="M0.324,0.201C0.274,0.201 0.226,0.194 0.179,0.181C0.133,0.169 0.094,0.15 0.064,0.125L0.12,0.031C0.143,0.05 0.173,0.066 0.208,0.078C0.244,0.089 0.28,0.095 0.317,0.095C0.376,0.095 0.419,0.082 0.446,0.055C0.474,0.028 0.487,-0.013 0.487,-0.067L0.487,-0.162L0.497,-0.283L0.493,-0.404L0.493,-0.534L0.612,-0.534L0.612,-0.081C0.612,0.016 0.588,0.087 0.538,0.132C0.489,0.178 0.417,0.201 0.324,0.201ZM0.308,-0.024C0.257,-0.024 0.211,-0.035 0.17,-0.056C0.129,-0.078 0.097,-0.108 0.073,-0.147C0.049,-0.186 0.038,-0.231 0.038,-0.283C0.038,-0.334 0.049,-0.38 0.073,-0.418C0.097,-0.457 0.129,-0.487 0.17,-0.508C0.211,-0.53 0.257,-0.54 0.308,-0.54C0.353,-0.54 0.394,-0.531 0.43,-0.513C0.466,-0.495 0.495,-0.467 0.517,-0.429C0.538,-0.391 0.549,-0.342 0.549,-0.283C0.549,-0.223 0.538,-0.174 0.517,-0.136C0.495,-0.098 0.466,-0.07 0.43,-0.052C0.394,-0.033 0.353,-0.024 0.308,-0.024ZM0.327,-0.13C0.359,-0.13 0.387,-0.137 0.411,-0.15C0.436,-0.162 0.455,-0.18 0.469,-0.203C0.482,-0.226 0.489,-0.253 0.489,-0.283C0.489,-0.313 0.482,-0.339 0.469,-0.362C0.455,-0.385 0.436,-0.403 0.411,-0.415C0.387,-0.428 0.359,-0.434 0.327,-0.434C0.295,-0.434 0.267,-0.428 0.243,-0.415C0.218,-0.403 0.198,-0.385 0.185,-0.362C0.171,-0.339 0.164,-0.313 0.164,-0.283C0.164,-0.253 0.171,-0.226 0.185,-0.203C0.198,-0.18 0.218,-0.162 0.243,-0.15C0.267,-0.137 0.295,-0.13 0.327,-0.13Z" style="fill:white;fill-opacity:0.75;fill-rule:nonzero;"/>
                    </g>
                    <g transform="matrix(10.539397,0,0,10.539397,402.008966,51.329924)">
                        <path d="M0.082,-0L0.082,-0.534L0.201,-0.534L0.201,-0.39L0.18,-0.434C0.199,-0.468 0.226,-0.495 0.261,-0.513C0.297,-0.531 0.338,-0.54 0.385,-0.54C0.428,-0.54 0.466,-0.532 0.5,-0.515C0.533,-0.499 0.559,-0.473 0.579,-0.439C0.598,-0.404 0.608,-0.36 0.608,-0.306L0.608,-0L0.483,-0L0.483,-0.29C0.483,-0.337 0.472,-0.372 0.45,-0.396C0.427,-0.419 0.396,-0.431 0.356,-0.431C0.327,-0.431 0.301,-0.425 0.278,-0.413C0.255,-0.401 0.238,-0.383 0.226,-0.359C0.213,-0.336 0.207,-0.306 0.207,-0.27L0.207,-0L0.082,-0Z" style="fill:white;fill-opacity:0.75;fill-rule:nonzero;"/>
                    </g>
                    <g transform="matrix(10.539397,0,0,10.539397,409.243808,51.329924)">
                        <path d="M0.333,0.007C0.274,0.007 0.222,-0.005 0.177,-0.029C0.133,-0.052 0.099,-0.085 0.074,-0.126C0.05,-0.167 0.038,-0.214 0.038,-0.267C0.038,-0.32 0.049,-0.367 0.073,-0.408C0.097,-0.45 0.13,-0.482 0.172,-0.505C0.213,-0.529 0.261,-0.54 0.314,-0.54C0.366,-0.54 0.412,-0.529 0.453,-0.506C0.494,-0.483 0.526,-0.451 0.549,-0.41C0.572,-0.369 0.584,-0.32 0.584,-0.264C0.584,-0.258 0.584,-0.253 0.584,-0.246C0.583,-0.239 0.583,-0.233 0.582,-0.227L0.137,-0.227L0.137,-0.31L0.516,-0.31L0.467,-0.284C0.467,-0.314 0.461,-0.341 0.448,-0.365C0.435,-0.388 0.417,-0.406 0.394,-0.42C0.371,-0.433 0.344,-0.44 0.314,-0.44C0.284,-0.44 0.257,-0.433 0.234,-0.42C0.21,-0.406 0.192,-0.388 0.179,-0.364C0.167,-0.34 0.16,-0.313 0.16,-0.281L0.16,-0.261C0.16,-0.229 0.167,-0.201 0.182,-0.176C0.197,-0.152 0.217,-0.133 0.244,-0.119C0.27,-0.105 0.301,-0.099 0.336,-0.099C0.366,-0.099 0.393,-0.103 0.417,-0.113C0.441,-0.123 0.462,-0.137 0.481,-0.157L0.548,-0.08C0.524,-0.052 0.494,-0.03 0.457,-0.016C0.421,-0.001 0.379,0.007 0.333,0.007Z" style="fill:white;fill-opacity:0.75;fill-rule:nonzero;"/>
                    </g>
                    <g transform="matrix(10.539397,0,0,10.539397,415.795678,51.329924)">
                        <path d="M0.308,0.007C0.257,0.007 0.211,-0.005 0.17,-0.028C0.129,-0.05 0.097,-0.082 0.073,-0.123C0.05,-0.164 0.038,-0.212 0.038,-0.267C0.038,-0.322 0.05,-0.37 0.073,-0.411C0.097,-0.452 0.129,-0.484 0.17,-0.506C0.211,-0.529 0.257,-0.54 0.308,-0.54C0.353,-0.54 0.393,-0.531 0.428,-0.511C0.463,-0.491 0.491,-0.461 0.512,-0.421C0.533,-0.381 0.543,-0.329 0.543,-0.267C0.543,-0.205 0.533,-0.154 0.513,-0.113C0.493,-0.073 0.465,-0.043 0.43,-0.023C0.395,-0.003 0.354,0.007 0.308,0.007ZM0.323,-0.1C0.353,-0.1 0.38,-0.107 0.404,-0.12C0.428,-0.134 0.447,-0.153 0.461,-0.178C0.475,-0.204 0.482,-0.233 0.482,-0.267C0.482,-0.301 0.475,-0.331 0.461,-0.356C0.447,-0.381 0.428,-0.4 0.404,-0.414C0.38,-0.427 0.353,-0.434 0.323,-0.434C0.293,-0.434 0.266,-0.427 0.242,-0.414C0.219,-0.4 0.2,-0.381 0.186,-0.356C0.171,-0.331 0.164,-0.301 0.164,-0.267C0.164,-0.233 0.171,-0.204 0.186,-0.178C0.2,-0.153 0.219,-0.134 0.242,-0.12C0.266,-0.107 0.293,-0.1 0.323,-0.1ZM0.485,-0L0.485,-0.126L0.489,-0.268L0.48,-0.41L0.48,-0.742L0.605,-0.742L0.605,-0L0.485,-0Z" style="fill:white;fill-opacity:0.75;fill-rule:nonzero;"/>
                    </g>
                    <g transform="matrix(10.539397,0,0,10.539397,423.033245,51.329924)">
                    </g>
                    <g transform="matrix(10.539397,0,0,10.539397,425.938121,51.329924)">
                        <path d="M0.378,0.007C0.333,0.007 0.293,-0.003 0.257,-0.023C0.221,-0.043 0.194,-0.073 0.174,-0.113C0.153,-0.154 0.143,-0.205 0.143,-0.267C0.143,-0.329 0.154,-0.381 0.175,-0.421C0.195,-0.461 0.224,-0.491 0.259,-0.511C0.295,-0.531 0.335,-0.54 0.378,-0.54C0.431,-0.54 0.477,-0.529 0.517,-0.506C0.558,-0.484 0.59,-0.452 0.613,-0.411C0.637,-0.37 0.649,-0.322 0.649,-0.267C0.649,-0.212 0.637,-0.164 0.613,-0.123C0.59,-0.082 0.558,-0.05 0.517,-0.028C0.477,-0.005 0.431,0.007 0.378,0.007ZM0.082,-0L0.082,-0.742L0.207,-0.742L0.207,-0.41L0.197,-0.268L0.201,-0.126L0.201,-0L0.082,-0ZM0.364,-0.1C0.394,-0.1 0.421,-0.107 0.444,-0.12C0.468,-0.134 0.487,-0.153 0.501,-0.178C0.515,-0.204 0.522,-0.233 0.522,-0.267C0.522,-0.301 0.515,-0.331 0.501,-0.356C0.487,-0.381 0.468,-0.4 0.444,-0.414C0.421,-0.427 0.394,-0.434 0.364,-0.434C0.334,-0.434 0.307,-0.427 0.283,-0.414C0.259,-0.4 0.24,-0.381 0.226,-0.356C0.212,-0.331 0.205,-0.301 0.205,-0.267C0.205,-0.233 0.212,-0.204 0.226,-0.178C0.24,-0.153 0.259,-0.134 0.283,-0.12C0.307,-0.107 0.334,-0.1 0.364,-0.1Z" style="fill:white;fill-opacity:0.75;fill-rule:nonzero;"/>
                    </g>
                    <g transform="matrix(10.539397,0,0,10.539397,433.010783,51.329924)">
                        <path d="M0.126,0.201C0.1,0.201 0.074,0.196 0.048,0.188C0.022,0.179 0.001,0.167 -0.017,0.152L0.033,0.06C0.045,0.072 0.06,0.081 0.076,0.087C0.092,0.094 0.108,0.097 0.125,0.097C0.147,0.097 0.166,0.091 0.18,0.08C0.194,0.069 0.207,0.05 0.219,0.023L0.25,-0.047L0.26,-0.062L0.462,-0.534L0.582,-0.534L0.332,0.043C0.316,0.083 0.297,0.115 0.277,0.138C0.256,0.161 0.233,0.177 0.209,0.187C0.184,0.196 0.156,0.201 0.126,0.201ZM0.236,0.019L-0.005,-0.534L0.125,-0.534L0.321,-0.073L0.236,0.019Z" style="fill:white;fill-opacity:0.75;fill-rule:nonzero;"/>
                    </g>
                    <g transform="matrix(10.539397,0,0,10.539397,439.100736,51.329924)">
                    </g>
                    <g transform="matrix(10.539397,0,0,10.539397,442.005611,51.329924)">
                        <path d="M0.094,-0L0.094,-0.7L0.224,-0.7L0.224,-0.11L0.59,-0.11L0.59,-0L0.094,-0Z" style="fill:white;fill-opacity:0.75;fill-rule:nonzero;"/>
                    </g>
                    <g transform="matrix(10.539397,0,0,10.539397,448.326251,51.329924)">
                        <path d="M-0.005,-0L0.31,-0.7L0.438,-0.7L0.754,-0L0.618,-0L0.347,-0.631L0.399,-0.631L0.129,-0L-0.005,-0ZM0.14,-0.162L0.175,-0.264L0.553,-0.264L0.588,-0.162L0.14,-0.162Z" style="fill:white;fill-opacity:0.75;fill-rule:nonzero;"/>
                    </g>
                    <g transform="matrix(10.539397,0,0,10.539397,456.215352,51.329924)">
                        <path d="M0.094,-0L0.094,-0.7L0.4,-0.7C0.476,-0.7 0.542,-0.685 0.6,-0.656C0.657,-0.627 0.702,-0.586 0.734,-0.534C0.766,-0.482 0.782,-0.42 0.782,-0.35C0.782,-0.28 0.766,-0.218 0.734,-0.166C0.702,-0.114 0.657,-0.073 0.6,-0.044C0.542,-0.015 0.476,-0 0.4,-0L0.094,-0ZM0.224,-0.11L0.394,-0.11C0.446,-0.11 0.492,-0.12 0.53,-0.14C0.568,-0.16 0.598,-0.188 0.619,-0.224C0.641,-0.26 0.651,-0.302 0.651,-0.35C0.651,-0.399 0.641,-0.441 0.619,-0.477C0.598,-0.512 0.568,-0.54 0.53,-0.56C0.492,-0.58 0.446,-0.59 0.394,-0.59L0.224,-0.59L0.224,-0.11Z" style="fill:white;fill-opacity:0.75;fill-rule:nonzero;"/>
                    </g>
                    <g transform="matrix(10.539397,0,0,10.539397,464.920894,51.329924)">
                    </g>
                    <g transform="matrix(10.539397,0,0,10.539397,467.82577,51.329924)">
                        <path d="M0.518,0.204C0.447,0.204 0.383,0.193 0.325,0.17C0.267,0.147 0.217,0.115 0.175,0.074C0.133,0.033 0.101,-0.016 0.078,-0.071C0.055,-0.127 0.044,-0.188 0.044,-0.254C0.044,-0.32 0.055,-0.38 0.078,-0.436C0.101,-0.491 0.133,-0.539 0.175,-0.58C0.217,-0.621 0.268,-0.653 0.327,-0.675C0.385,-0.698 0.45,-0.709 0.522,-0.709C0.591,-0.709 0.654,-0.698 0.711,-0.677C0.769,-0.655 0.818,-0.625 0.86,-0.586C0.902,-0.547 0.934,-0.5 0.957,-0.447C0.979,-0.393 0.991,-0.335 0.991,-0.271C0.991,-0.214 0.983,-0.164 0.968,-0.123C0.952,-0.081 0.931,-0.049 0.902,-0.027C0.874,-0.005 0.839,0.006 0.799,0.006C0.758,0.006 0.725,-0.006 0.7,-0.031C0.676,-0.055 0.664,-0.091 0.664,-0.138L0.664,-0.195L0.668,-0.252L0.659,-0.382L0.659,-0.496L0.77,-0.496L0.77,-0.156C0.77,-0.13 0.775,-0.113 0.786,-0.103C0.796,-0.093 0.808,-0.088 0.822,-0.088C0.84,-0.088 0.856,-0.094 0.868,-0.108C0.881,-0.122 0.89,-0.142 0.897,-0.17C0.903,-0.197 0.906,-0.23 0.906,-0.269C0.906,-0.323 0.897,-0.371 0.879,-0.415C0.861,-0.459 0.834,-0.497 0.8,-0.528C0.765,-0.56 0.725,-0.584 0.678,-0.602C0.631,-0.619 0.579,-0.627 0.522,-0.627C0.464,-0.627 0.411,-0.618 0.364,-0.599C0.316,-0.581 0.276,-0.555 0.242,-0.522C0.208,-0.489 0.182,-0.449 0.164,-0.404C0.145,-0.358 0.136,-0.308 0.136,-0.254C0.136,-0.199 0.145,-0.148 0.163,-0.102C0.181,-0.056 0.207,-0.017 0.24,0.016C0.274,0.05 0.314,0.075 0.361,0.094C0.408,0.112 0.46,0.121 0.518,0.121C0.549,0.121 0.581,0.118 0.615,0.111C0.649,0.104 0.681,0.093 0.712,0.077L0.739,0.157C0.709,0.172 0.673,0.184 0.633,0.192C0.593,0.2 0.555,0.204 0.518,0.204ZM0.492,0.006C0.446,0.006 0.405,-0.004 0.369,-0.026C0.333,-0.048 0.304,-0.078 0.283,-0.117C0.262,-0.155 0.252,-0.199 0.252,-0.249C0.252,-0.298 0.262,-0.342 0.283,-0.38C0.304,-0.418 0.333,-0.448 0.369,-0.47C0.405,-0.491 0.446,-0.502 0.492,-0.502C0.537,-0.502 0.576,-0.492 0.609,-0.473C0.643,-0.453 0.668,-0.425 0.687,-0.387C0.705,-0.349 0.715,-0.303 0.715,-0.249C0.715,-0.194 0.706,-0.148 0.688,-0.11C0.67,-0.072 0.644,-0.043 0.611,-0.023C0.578,-0.004 0.538,0.006 0.492,0.006ZM0.513,-0.091C0.541,-0.091 0.567,-0.097 0.589,-0.109C0.611,-0.122 0.629,-0.14 0.642,-0.164C0.655,-0.188 0.661,-0.216 0.661,-0.249C0.661,-0.282 0.655,-0.31 0.642,-0.334C0.629,-0.357 0.611,-0.374 0.589,-0.387C0.567,-0.399 0.541,-0.405 0.513,-0.405C0.484,-0.405 0.458,-0.399 0.436,-0.386C0.413,-0.374 0.396,-0.356 0.384,-0.332C0.371,-0.309 0.365,-0.281 0.365,-0.249C0.365,-0.217 0.371,-0.189 0.384,-0.165C0.396,-0.142 0.413,-0.123 0.436,-0.11C0.458,-0.097 0.484,-0.091 0.513,-0.091Z" style="fill:white;fill-opacity:0.75;fill-rule:nonzero;"/>
                    </g>
                    <g transform="matrix(10.539397,0,0,10.539397,478.727595,51.329924)">
                        <path d="M0.311,0.01C0.256,0.01 0.204,0.002 0.154,-0.014C0.104,-0.029 0.064,-0.049 0.035,-0.074L0.08,-0.175C0.108,-0.153 0.143,-0.134 0.184,-0.12C0.226,-0.105 0.268,-0.098 0.311,-0.098C0.348,-0.098 0.377,-0.102 0.4,-0.11C0.423,-0.118 0.439,-0.129 0.45,-0.142C0.461,-0.156 0.466,-0.172 0.466,-0.189C0.466,-0.21 0.458,-0.227 0.443,-0.24C0.428,-0.253 0.408,-0.263 0.384,-0.271C0.359,-0.279 0.332,-0.287 0.303,-0.293C0.273,-0.3 0.243,-0.307 0.213,-0.316C0.184,-0.325 0.157,-0.337 0.132,-0.352C0.108,-0.366 0.088,-0.385 0.073,-0.409C0.058,-0.433 0.05,-0.464 0.05,-0.501C0.05,-0.539 0.06,-0.574 0.081,-0.605C0.101,-0.637 0.132,-0.662 0.173,-0.681C0.215,-0.7 0.268,-0.71 0.332,-0.71C0.374,-0.71 0.416,-0.705 0.457,-0.694C0.498,-0.683 0.534,-0.668 0.565,-0.648L0.524,-0.547C0.493,-0.566 0.46,-0.58 0.427,-0.589C0.394,-0.598 0.362,-0.602 0.331,-0.602C0.295,-0.602 0.266,-0.598 0.243,-0.589C0.221,-0.581 0.204,-0.569 0.194,-0.555C0.184,-0.541 0.179,-0.525 0.179,-0.507C0.179,-0.486 0.186,-0.468 0.201,-0.456C0.217,-0.443 0.236,-0.433 0.261,-0.425C0.285,-0.418 0.312,-0.41 0.342,-0.404C0.372,-0.397 0.401,-0.389 0.431,-0.38C0.461,-0.372 0.488,-0.36 0.512,-0.346C0.537,-0.332 0.556,-0.313 0.572,-0.289C0.587,-0.265 0.594,-0.235 0.594,-0.198C0.594,-0.161 0.584,-0.126 0.564,-0.095C0.543,-0.063 0.512,-0.038 0.47,-0.019C0.428,0 0.375,0.01 0.311,0.01Z" style="fill:white;fill-opacity:0.75;fill-rule:nonzero;"/>
                    </g>
                    <g transform="matrix(10.539397,0,0,10.539397,485.358329,51.329924)">
                        <path d="M0.411,-0L0.411,-0.108L0.404,-0.131L0.404,-0.32C0.404,-0.357 0.393,-0.385 0.371,-0.405C0.349,-0.426 0.315,-0.436 0.271,-0.436C0.241,-0.436 0.211,-0.431 0.183,-0.422C0.154,-0.413 0.129,-0.4 0.109,-0.383L0.06,-0.474C0.089,-0.496 0.123,-0.512 0.163,-0.524C0.202,-0.535 0.244,-0.54 0.286,-0.54C0.363,-0.54 0.423,-0.522 0.466,-0.485C0.508,-0.448 0.529,-0.391 0.529,-0.313L0.529,-0L0.411,-0ZM0.243,0.007C0.203,0.007 0.168,-0 0.138,-0.014C0.108,-0.027 0.084,-0.046 0.068,-0.071C0.052,-0.095 0.044,-0.122 0.044,-0.153C0.044,-0.183 0.051,-0.21 0.066,-0.234C0.08,-0.258 0.104,-0.277 0.136,-0.291C0.169,-0.305 0.212,-0.312 0.266,-0.312L0.421,-0.312L0.421,-0.229L0.275,-0.229C0.232,-0.229 0.204,-0.222 0.189,-0.208C0.174,-0.195 0.167,-0.178 0.167,-0.158C0.167,-0.135 0.176,-0.117 0.194,-0.104C0.212,-0.091 0.237,-0.084 0.269,-0.084C0.3,-0.084 0.327,-0.091 0.352,-0.105C0.376,-0.119 0.394,-0.139 0.404,-0.167L0.425,-0.092C0.413,-0.06 0.392,-0.036 0.361,-0.019C0.33,-0.002 0.291,0.007 0.243,0.007Z" style="fill:white;fill-opacity:0.75;fill-rule:nonzero;"/>
                    </g>
                    <g transform="matrix(10.539397,0,0,10.539397,491.753471,51.329924)">
                        <path d="M0.378,0.007C0.335,0.007 0.295,-0.003 0.259,-0.023C0.224,-0.043 0.195,-0.073 0.175,-0.114C0.154,-0.154 0.143,-0.205 0.143,-0.267C0.143,-0.329 0.153,-0.381 0.174,-0.421C0.194,-0.461 0.221,-0.491 0.257,-0.511C0.293,-0.531 0.333,-0.54 0.378,-0.54C0.431,-0.54 0.477,-0.529 0.517,-0.506C0.558,-0.484 0.59,-0.452 0.613,-0.411C0.637,-0.37 0.649,-0.322 0.649,-0.267C0.649,-0.212 0.637,-0.164 0.613,-0.123C0.59,-0.082 0.558,-0.05 0.517,-0.027C0.477,-0.005 0.431,0.007 0.378,0.007ZM0.082,0.194L0.082,-0.534L0.201,-0.534L0.201,-0.408L0.197,-0.266L0.207,-0.124L0.207,0.194L0.082,0.194ZM0.364,-0.1C0.394,-0.1 0.421,-0.107 0.444,-0.12C0.468,-0.134 0.487,-0.153 0.501,-0.178C0.515,-0.204 0.522,-0.233 0.522,-0.267C0.522,-0.301 0.515,-0.331 0.501,-0.356C0.487,-0.381 0.468,-0.4 0.444,-0.414C0.421,-0.427 0.394,-0.434 0.364,-0.434C0.334,-0.434 0.307,-0.427 0.283,-0.414C0.259,-0.4 0.24,-0.381 0.226,-0.356C0.212,-0.331 0.205,-0.301 0.205,-0.267C0.205,-0.233 0.212,-0.204 0.226,-0.178C0.24,-0.153 0.259,-0.134 0.283,-0.12C0.307,-0.107 0.334,-0.1 0.364,-0.1Z" style="fill:white;fill-opacity:0.75;fill-rule:nonzero;"/>
                    </g>
                    <g transform="matrix(10.539397,0,0,10.539397,498.984224,51.329924)">
                        <path d="M0.082,-0L0.082,-0.534L0.207,-0.534L0.207,-0L0.082,-0ZM0.145,-0.622C0.122,-0.622 0.102,-0.629 0.088,-0.644C0.073,-0.659 0.065,-0.676 0.065,-0.697C0.065,-0.718 0.073,-0.736 0.088,-0.751C0.102,-0.765 0.122,-0.772 0.145,-0.772C0.168,-0.772 0.188,-0.765 0.203,-0.752C0.218,-0.738 0.225,-0.721 0.225,-0.7C0.225,-0.678 0.218,-0.659 0.203,-0.644C0.188,-0.63 0.169,-0.622 0.145,-0.622Z" style="fill:white;fill-opacity:0.75;fill-rule:nonzero;"/>
                    </g>
                    <g transform="matrix(10.539397,0,0,10.539397,502.034652,51.329924)">
                        <path d="M0.333,0.007C0.274,0.007 0.222,-0.005 0.177,-0.029C0.133,-0.052 0.099,-0.085 0.074,-0.126C0.05,-0.167 0.038,-0.214 0.038,-0.267C0.038,-0.32 0.049,-0.367 0.073,-0.408C0.097,-0.45 0.13,-0.482 0.172,-0.505C0.213,-0.529 0.261,-0.54 0.314,-0.54C0.366,-0.54 0.412,-0.529 0.453,-0.506C0.494,-0.483 0.526,-0.451 0.549,-0.41C0.572,-0.369 0.584,-0.32 0.584,-0.264C0.584,-0.258 0.584,-0.253 0.584,-0.246C0.583,-0.239 0.583,-0.233 0.582,-0.227L0.137,-0.227L0.137,-0.31L0.516,-0.31L0.467,-0.284C0.467,-0.314 0.461,-0.341 0.448,-0.365C0.435,-0.388 0.417,-0.406 0.394,-0.42C0.371,-0.433 0.344,-0.44 0.314,-0.44C0.284,-0.44 0.257,-0.433 0.234,-0.42C0.21,-0.406 0.192,-0.388 0.179,-0.364C0.167,-0.34 0.16,-0.313 0.16,-0.281L0.16,-0.261C0.16,-0.229 0.167,-0.201 0.182,-0.176C0.197,-0.152 0.217,-0.133 0.244,-0.119C0.27,-0.105 0.301,-0.099 0.336,-0.099C0.366,-0.099 0.393,-0.103 0.417,-0.113C0.441,-0.123 0.462,-0.137 0.481,-0.157L0.548,-0.08C0.524,-0.052 0.494,-0.03 0.457,-0.016C0.421,-0.001 0.379,0.007 0.333,0.007Z" style="fill:white;fill-opacity:0.75;fill-rule:nonzero;"/>
                    </g>
                    <g transform="matrix(10.539397,0,0,10.539397,508.586522,51.329924)">
                        <path d="M0.082,-0L0.082,-0.534L0.201,-0.534L0.201,-0.39L0.18,-0.434C0.199,-0.468 0.226,-0.495 0.261,-0.513C0.297,-0.531 0.338,-0.54 0.385,-0.54C0.428,-0.54 0.466,-0.532 0.5,-0.515C0.533,-0.499 0.559,-0.473 0.579,-0.439C0.598,-0.404 0.608,-0.36 0.608,-0.306L0.608,-0L0.483,-0L0.483,-0.29C0.483,-0.337 0.472,-0.372 0.45,-0.396C0.427,-0.419 0.396,-0.431 0.356,-0.431C0.327,-0.431 0.301,-0.425 0.278,-0.413C0.255,-0.401 0.238,-0.383 0.226,-0.359C0.213,-0.336 0.207,-0.306 0.207,-0.27L0.207,-0L0.082,-0Z" style="fill:white;fill-opacity:0.75;fill-rule:nonzero;"/>
                    </g>
                    <g transform="matrix(10.539397,0,0,10.539397,515.810824,51.329924)">
                        <path d="M0.038,-0L0.038,-0.079L0.367,-0.477L0.39,-0.434L0.044,-0.434L0.044,-0.534L0.49,-0.534L0.49,-0.455L0.161,-0.057L0.136,-0.1L0.499,-0.1L0.499,-0L0.038,-0Z" style="fill:white;fill-opacity:0.75;fill-rule:nonzero;"/>
                    </g>
                    <g transform="matrix(10.539397,0,0,10.539397,521.414512,51.329924)">
                        <path d="M0.411,-0L0.411,-0.108L0.404,-0.131L0.404,-0.32C0.404,-0.357 0.393,-0.385 0.371,-0.405C0.349,-0.426 0.315,-0.436 0.271,-0.436C0.241,-0.436 0.211,-0.431 0.183,-0.422C0.154,-0.413 0.129,-0.4 0.109,-0.383L0.06,-0.474C0.089,-0.496 0.123,-0.512 0.163,-0.524C0.202,-0.535 0.244,-0.54 0.286,-0.54C0.363,-0.54 0.423,-0.522 0.466,-0.485C0.508,-0.448 0.529,-0.391 0.529,-0.313L0.529,-0L0.411,-0ZM0.243,0.007C0.203,0.007 0.168,-0 0.138,-0.014C0.108,-0.027 0.084,-0.046 0.068,-0.071C0.052,-0.095 0.044,-0.122 0.044,-0.153C0.044,-0.183 0.051,-0.21 0.066,-0.234C0.08,-0.258 0.104,-0.277 0.136,-0.291C0.169,-0.305 0.212,-0.312 0.266,-0.312L0.421,-0.312L0.421,-0.229L0.275,-0.229C0.232,-0.229 0.204,-0.222 0.189,-0.208C0.174,-0.195 0.167,-0.178 0.167,-0.158C0.167,-0.135 0.176,-0.117 0.194,-0.104C0.212,-0.091 0.237,-0.084 0.269,-0.084C0.3,-0.084 0.327,-0.091 0.352,-0.105C0.376,-0.119 0.394,-0.139 0.404,-0.167L0.425,-0.092C0.413,-0.06 0.392,-0.036 0.361,-0.019C0.33,-0.002 0.291,0.007 0.243,0.007Z" style="fill:white;fill-opacity:0.75;fill-rule:nonzero;"/>
                    </g>
                    <g transform="matrix(10.539397,0,0,10.539397,527.809654,51.329924)">
                    </g>
                </g>
            </g>
        </g>
    </g>
</svg>
